<svg xmlns="http://www.w3.org/2000/svg" viewBox="0 0 750 500"><g id="freepik--background-simple--inject-191"><g><path d="M538.767,148.041c-21.572-25.316-59.289-38.999-93.304-31.394-34.126,7.63-60.763,34.146-95.242,40.297-39.83,7.105-81.173-14.542-120.684-6.065-34.616,7.426-64.811,37.87-64.993,70.508-.194,34.815,23.53,57.089,43.723,70.987,20.193,13.899,48.894,26.862,73.866,30.209,0,0,123.206,21.273,214.711-18.813,31.596-13.842,49.882-33.365,59.542-64.26,9.66-30.895,3.953-66.154-17.619-91.47Z" style="fill:#407BFF;"></path><g style="opacity:.9;"><path d="M538.767,148.041c-21.572-25.316-59.289-38.999-93.304-31.394-34.126,7.63-60.763,34.146-95.242,40.297-39.83,7.105-81.173-14.542-120.684-6.065-34.616,7.426-64.811,37.87-64.993,70.508-.194,34.815,23.53,57.089,43.723,70.987,20.193,13.899,48.894,26.862,73.866,30.209,0,0,123.206,21.273,214.711-18.813,31.596-13.842,49.882-33.365,59.542-64.26,9.66-30.895,3.953-66.154-17.619-91.47Z" style="fill:#fff;"></path></g></g></g><g id="freepik--Shadow--inject-191"><path d="M637.531,432.098c0,3.387-117.539,6.132-262.531,6.132s-262.531-2.745-262.531-6.132,117.539-6.132,262.531-6.132,262.531,2.745,262.531,6.132Z" style="fill:#f5f5f5;"></path></g><g id="freepik--Streetlights--inject-191"><g id="freepik--freepik--Sreetlight--inject-39--inject-191"><path d="M199.265,84.111c-14.166,1.834-35.758,6.559-52.654,15.426v3.335s23.345-13.531,52.775-15.97l-.121-2.791Z" style="fill:#407BFF;"></path><path d="M223.98,89.119c-.906-.788-1.925-1.437-3.023-1.924-2.438-1.007-17.199,1.159-22.247,1.955v-2.146l-.131-2.801c3.436-.353,6.519-.604,9.068-.766,4.252-.232,7.395-.373,9.733-.443,3.474-.168,6.426,2.512,6.594,5.986,.002,.047,.004,.094,.005,.14Z" style="fill:#407BFF;"></path><rect x="181.431" y="88.293" width="2.297" height="10.045" style="fill:#263238;"></rect><path d="M146.611,123.204c-.998-.038-1.785-.865-1.773-1.864,0-.907,0-2.791,9.471-11.345,1.329-1.236,2.743-2.377,4.232-3.416,12.574-8.584,28.03-10.73,28.675-10.811,.965-.199,1.908,.422,2.106,1.387,.199,.965-.422,1.908-1.387,2.106-.081,.017-.163,.028-.246,.033-.151,0-15.284,2.126-27.143,10.227-1.354,.947-2.64,1.988-3.849,3.113-6.166,5.562-8.131,8.191-8.322,8.867,0,.94-.761,1.703-1.702,1.704-.02,0-.041,0-.061-.001Z" style="fill:#263238;"></path><path d="M144.061,99.023h3.94c.134,0,.242,.108,.242,.242V363.293h-4.433V99.265c0-.134,.108-.242,.242-.242h.01Z" style="fill:#263238;"></path><path d="M225.784,89.31v.141l-20.665,1.945-4.594-1.945v-.302c5.038-.796,19.808-3.023,22.247-1.955,1.097,.489,2.115,1.138,3.023,1.924,.008,.064,.004,.129-.01,.191Z" style="fill:#407BFF;"></path><path d="M225.784,89.31v.141l-20.665,1.945-4.594-1.945v-.302c5.038-.796,19.808-3.023,22.247-1.955,1.097,.489,2.115,1.138,3.023,1.924,.008,.064,.004,.129-.01,.191Z" style="fill:#fff; isolation:isolate; opacity:.6;"></path></g><g id="freepik--freepik--Sreetlight--inject-39-2--inject-191"><path d="M623.332,89.194c-14.166,1.834-35.758,6.559-52.655,15.426v3.335s23.345-13.531,52.775-15.97l-.121-2.791Z" style="fill:#407BFF;"></path><path d="M648.048,94.201c-.906-.788-1.925-1.437-3.023-1.924-2.438-1.008-17.199,1.159-22.247,1.955v-2.146l-.131-2.801c3.436-.353,6.519-.605,9.068-.766,4.252-.232,7.395-.373,9.733-.443,3.474-.168,6.426,2.512,6.594,5.985,.002,.047,.004,.094,.005,.141Z" style="fill:#407BFF;"></path><rect x="605.499" y="93.375" width="2.297" height="10.045" style="fill:#263238;"></rect><path d="M570.678,128.287c-.998-.038-1.785-.865-1.773-1.864,0-.907,0-2.791,9.471-11.345,1.329-1.236,2.743-2.377,4.232-3.416,12.574-8.584,28.03-10.73,28.675-10.811,.965-.199,1.908,.422,2.106,1.387,.199,.965-.422,1.908-1.387,2.106-.081,.017-.163,.028-.246,.033-.151,0-15.284,2.126-27.143,10.227-1.354,.947-2.64,1.988-3.849,3.113-6.166,5.562-8.131,8.191-8.322,8.866,0,.94-.761,1.703-1.702,1.704-.021,0-.041,0-.062-.001Z" style="fill:#263238;"></path><path d="M568.129,104.105h3.94c.133,0,.242,.108,.242,.242V368.375h-4.433V104.347c0-.133,.108-.242,.242-.242h.01Z" style="fill:#263238;"></path><path d="M649.851,94.393v.141l-20.665,1.945-4.594-1.945v-.302c5.038-.796,19.808-3.023,22.247-1.955,1.097,.489,2.115,1.138,3.023,1.924,.008,.064,.004,.129-.01,.191Z" style="fill:#407BFF;"></path><path d="M649.851,94.393v.141l-20.665,1.945-4.594-1.945v-.302c5.038-.796,19.808-3.023,22.247-1.955,1.097,.489,2.115,1.138,3.023,1.924,.008,.064,.004,.129-.01,.191Z" style="fill:#fff; isolation:isolate; opacity:.6;"></path></g></g><g id="freepik--Car--inject-191"><g><g><polygon points="484.551 403.905 490.409 351.471 524.906 327.388 562.714 327.388 606.918 356.403 608.871 403.905 598.944 407.267 484.551 413.018 484.551 403.905" style="fill:#407BFF;"></polygon><polygon points="484.551 403.905 490.409 351.471 524.906 327.388 562.714 327.388 606.918 356.403 608.871 403.905 598.944 407.267 484.551 413.018 484.551 403.905" style="opacity:.4;"></polygon></g><g><ellipse cx="546.705" cy="385.158" rx="46.358" ry="46.253" style="fill:#263238;"></ellipse><ellipse cx="546.705" cy="385.158" rx="28.421" ry="28.357" style="fill:#fff; isolation:isolate; opacity:.4;"></ellipse><g style="opacity:.3;"><path d="M546.692,359.647h.014c1.253,0,2.27,1.017,2.27,2.27v14.526c0,1.253-1.017,2.269-2.269,2.269h-.015c-1.253,0-2.269-1.017-2.269-2.269v-14.526c0-1.253,1.017-2.27,2.27-2.27Z" style="fill:#fff;"></path></g><g style="opacity:.3;"><path d="M546.692,391.598h.014c1.253,0,2.27,1.017,2.27,2.27v14.526c0,1.253-1.017,2.269-2.269,2.269h-.015c-1.253,0-2.269-1.017-2.269-2.269v-14.526c0-1.253,1.017-2.27,2.27-2.27Z" style="fill:#fff;"></path></g><g style="opacity:.3;"><path d="M555.373,382.777c-1.084,.612-2.46,.231-3.073-.851h0c-.63-1.082-.263-2.468,.821-3.097l12.622-7.305,.006-.003c1.087-.623,2.474-.248,3.098,.836h0l.003,.006c.624,1.085,.249,2.469-.838,3.091l-12.607,7.305-.031,.018Z" style="fill:#fff;"></path></g><g style="opacity:.3;"><path d="M524.553,397.851h0l-.003-.006c-.624-1.085-.249-2.469,.838-3.091l12.607-7.305c1.088-.631,2.483-.265,3.119,.818h0c.63,1.089,.257,2.482-.835,3.112l-12.607,7.305c-1.092,.629-2.488,.256-3.119-.833Z" style="fill:#fff;"></path></g><g style="opacity:.3;"><path d="M568.842,397.915c-.627,1.083-2.016,1.453-3.101,.827l-12.622-7.305c-1.086-.635-1.452-2.026-.82-3.112h0c.631-1.082,2.02-1.448,3.103-.818l12.607,7.305,.006,.003c1.085,.626,1.456,2.011,.829,3.094h0l-.004,.006Z" style="fill:#fff;"></path></g><g style="opacity:.3;"><path d="M541.1,381.95c-.633,1.079-2.024,1.442-3.105,.81l-12.607-7.305-.006-.003c-1.085-.626-1.456-2.011-.829-3.094h0c.631-1.089,2.027-1.461,3.119-.833l12.607,7.305,.006,.003c1.085,.626,1.456,2.011,.829,3.094h0l-.013,.023Z" style="fill:#fff;"></path></g><path d="M546.707,381.342h0c2.111,0,3.822,1.707,3.822,3.813s-1.711,3.813-3.822,3.813-3.822-1.707-3.822-3.813,1.711-3.813,3.822-3.813Z" style="fill:#263238;"></path></g><g><polygon points="135.264 404.592 141.122 352.157 175.619 328.074 213.427 328.074 257.631 357.09 259.584 404.592 259.584 413.704 135.264 413.704 135.264 404.592" style="fill:#407BFF;"></polygon><polygon points="135.264 404.592 141.122 352.157 175.619 328.074 213.427 328.074 257.631 357.09 259.584 404.592 259.584 413.704 135.264 413.704 135.264 404.592" style="opacity:.5;"></polygon></g><path d="M246.055,318.891s36.371-22.478,69.776-31.844c33.405-9.366,59.641-17.08,59.641-17.08l-89.143,52.671-40.273-3.746Z" style="fill:#263238;"></path><path d="M632.402,318.035l8.66-8.66-.346-4.157h-36.718s-99.069-40.874-181.164-40.874-146.525,52.652-146.525,52.652l-26.326-1.386s-37.282,.473-56.809,3.118c-33.254,4.503-91.102,19.398-108.422,42.953,0,0,9.699,40.528,32.561,56.116h30.797v-34.158h.052c.557-26.214,21.939-47.303,48.287-47.303s47.73,21.089,48.287,47.303h.052v34.158h254.003v-34.158h.052c.557-26.214,21.939-47.303,48.286-47.303s47.73,21.089,48.287,47.303h.052v26.369c16.248-2.246,30.698-5.046,39.358-8.491,0,0,19.052-21.476,20.091-32.561l-22.516-50.92Z" style="fill:#407BFF;"></path><path d="M378.793,336.355c-25.897,1.277-68.482-5.97-103.469-12.482-27.155,1.166-55.16,3.111-78.911,6.106-54.109,6.823-88.416,36.01-88.416,36.01l-23.237-4.281c.096,.397,4.62,19.013,14.639,35.769,9.397,.405,26.794,1.113,48.713,1.812v-15.651h.052c.557-26.214,21.939-47.303,48.287-47.303s47.73,21.089,48.287,47.303h.052v17.613c47.154,.31,94.606-.546,125.009-4.118,80.011-9.4,107.209-15.009,138.184-70.377,0,0-83.104,7.325-129.189,9.598Z" style="opacity:.3;"></path><path d="M303.707,393.916c-19.019,0-32.126-.439-32.341-.447l-.121-.004v-44.605l.032-.035,26.64-29.884,.053-.003,177.764-8.55-.024,.151c-.016,.103-1.62,10.354-3.232,18.416-1.617,8.083-25.056,46.536-25.292,46.924l-.037,.039c-7.733,5.124-21.79,9.234-41.78,12.218-15.981,2.384-35.774,4.059-58.827,4.976-15.496,.617-30.424,.805-42.833,.805Zm-32.212-.693c2.316,.076,36.946,1.154,75.037-.36,36.188-1.44,82.982-5.583,100.455-17.138,.699-1.147,23.653-38.861,25.244-46.818,1.505-7.521,3.003-16.95,3.208-18.255l-177.405,8.533-26.539,29.771v44.268Z" style="fill:#263238;"></path><path d="M87.398,370.649s9.787-4.897,17.968,9.557c8.182,14.454,7.386,17.822,7.386,17.822l-13.355-.551c-4.471-7.47-8.421-16.569-12-26.828Z" style="fill:#263238;"></path><path d="M632.856,319.063h-23.985s3.597,11.233,11.993,15.617c8.395,4.385,19.452,1.252,19.852,2.157s-7.859-17.774-7.859-17.774Z" style="fill:#d7504d;"></path><path d="M196.449,329.96c54.11-6.823,130.3-8.2,168.206-7.322,37.906,.878,276.06-17.419,276.06-17.419h-36.718l-77.572,1.098-250.117,10.68-26.326-1.386s-37.282,.473-56.809,3.118c-33.254,4.503-91.102,19.398-108.422,42.953l23.281,4.289s34.307-29.187,88.416-36.01Z" style="fill:#fff; opacity:.3;"></path><path d="M654.588,370.774c-20.459,10.164-59.12,15.707-59.12,15.707v23.525c16.248-2.246,30.698-5.046,39.358-8.491,0,0,17.099-19.291,19.762-30.742Z" style="opacity:.3;"></path><path d="M95.394,359.824s9.55,2.238,11.341,1.641c1.791-.597,11.49-8.505,11.49-8.505,0,0-13.877-2.686-22.83,6.864Z" style="fill:#fff;"></path><g><ellipse cx="197.418" cy="385.845" rx="46.358" ry="46.253" style="fill:#263238;"></ellipse><ellipse cx="197.418" cy="385.845" rx="28.421" ry="28.357" style="fill:#fff; isolation:isolate; opacity:.4;"></ellipse><g style="opacity:.3;"><rect x="195.135" y="360.334" width="4.554" height="19.065" rx="2.264" ry="2.264" style="fill:#fff;"></rect></g><g style="opacity:.3;"><rect x="195.135" y="392.285" width="4.554" height="19.065" rx="2.264" ry="2.264" style="fill:#fff;"></rect></g><g style="opacity:.3;"><path d="M206.086,383.464c-1.084,.612-2.46,.231-3.073-.851h0c-.63-1.082-.263-2.468,.821-3.097l12.622-7.305,.006-.003c1.087-.623,2.474-.249,3.098,.836h0l.003,.006c.624,1.084,.249,2.469-.838,3.091l-12.607,7.305-.031,.018Z" style="fill:#fff;"></path></g><g style="opacity:.3;"><path d="M175.266,398.537h0l-.003-.006c-.624-1.085-.249-2.469,.838-3.091l12.607-7.305c1.088-.631,2.483-.265,3.119,.818h0c.63,1.09,.257,2.482-.835,3.112l-12.607,7.305c-1.092,.629-2.488,.256-3.119-.833Z" style="fill:#fff;"></path></g><g style="opacity:.3;"><path d="M219.555,398.602c-.627,1.083-2.016,1.453-3.101,.827l-12.622-7.305c-1.086-.635-1.453-2.026-.82-3.112h0c.631-1.082,2.02-1.448,3.103-.818l12.607,7.305,.006,.003c1.085,.626,1.456,2.011,.829,3.094h0l-.003,.006Z" style="fill:#fff;"></path></g><g style="opacity:.3;"><path d="M191.813,382.636c-.633,1.079-2.024,1.442-3.105,.81l-12.607-7.305-.006-.003c-1.085-.626-1.456-2.011-.829-3.094h0c.631-1.089,2.027-1.461,3.119-.833l12.607,7.305,.006,.003c1.085,.626,1.456,2.011,.829,3.094h0l-.013,.023Z" style="fill:#fff;"></path></g><path d="M197.419,382.029h0c2.111,0,3.822,1.707,3.822,3.813s-1.711,3.813-3.822,3.813-3.822-1.707-3.822-3.813,1.711-3.813,3.822-3.813Z" style="fill:#263238;"></path></g><path d="M244.788,417.797v-5.097s198.426,3.02,254.003-6.041v11.137H244.788Z" style="opacity:.5;"></path><path d="M117.313,417.797h30.797v-3.596l-35.914-.497c.861,.91,3.665,3.207,5.116,4.093Z" style="opacity:.5;"></path><path d="M297.975,319.063s198.056-7.844,228.451-12.746l4.412-8.94s-44.891-25.627-110.303-23.906c-65.412,1.721-122.559,45.592-122.559,45.592Z" style="fill:#263238;"></path><polygon points="475.218 278.276 470.186 311.045 482.805 309.909 485.417 280.577 475.218 278.276" style="opacity:.3;"></polygon><rect x="462.419" y="294.92" width="31.355" height=".249" transform="translate(110.105 719.556) rotate(-80.759)" style="fill:#263238;"></rect><polygon points="322.906 303.158 324.858 317.671 297.975 319.063 322.906 303.158" style="opacity:.3;"></polygon><g><path d="M318.368,308.129s-15.629,2.631-14.228,13.279c1.401,10.648,22.269,5.503,22.694,4.87,0,0-1.029-14.141-8.466-18.149Z" style="fill:#407BFF;"></path><path d="M318.368,308.129c-5.497,1.243-12.121,3.766-13.925,9.648-1.777,7.469,4.281,10.193,10.712,10.173,3.832,.048,8.124-.526,11.589-1.666-.812-6.55-2.367-14.407-8.376-18.156h0Zm0,0c6.116,3.686,7.728,11.592,8.56,18.184-.472,.349-.938,.388-1.458,.563-3.363,.88-6.841,1.337-10.32,1.311-6.55,.067-12.738-2.885-10.878-10.456,1.845-5.95,8.521-8.451,14.095-9.602h0Z" style="fill:#263238;"></path></g><path d="M326.834,303.158l198.887-5.637s-55.754-24.346-105.773-21.467c-50.02,2.879-93.114,27.104-93.114,27.104Z" style="fill:#fff; opacity:.2;"></path></g></g></svg>
