<svg xmlns="http://www.w3.org/2000/svg" viewBox="0 0 750 500"><g id="freepik--background-simple--inject-184"><g><path d="M566.116,186.617c-4.984-16.913-15.596-33.223-32.24-47.688-19.618-17.049-50.18-34.468-90.154-29.323-73.799,9.499-75.143,55.065-124.764,45.967-56.207-10.305-122.137-3.394-140.472,42.848-34.823,87.831,168.935,194.006,280.898,164.186,69.704-18.565,133.197-86.183,106.732-175.99Z" style="fill:#407BFF;"></path><path d="M566.116,186.617c-4.984-16.913-15.596-33.223-32.24-47.688-19.618-17.049-50.18-34.468-90.154-29.323-73.799,9.499-75.143,55.065-124.764,45.967-56.207-10.305-122.137-3.394-140.472,42.848-34.823,87.831,168.935,194.006,280.898,164.186,69.704-18.565,133.197-86.183,106.732-175.99Z" style="fill:#fff; opacity:.9;"></path></g></g><g id="freepik--Shadow--inject-184"><ellipse cx="373.393" cy="431.119" rx="271.789" ry="4.718" style="fill:#f5f5f5;"></ellipse></g><g id="freepik--Car--inject-184"><g><path d="M395.827,258.289c17.323,8.317,40.45,25.296,66.245,45.508l-25.36-.119-41.343-40.201,.458-5.189Z" style="fill:#263238;"></path><path d="M128.08,373.934l-3.851,6.738-22.874,3.99,3.38,5.859,44.527-2.982,112.676,3.521,251.043,3.606,96.731,.081,49.298-3.022v-8.327l-40.113-51.831-32.902-9.014-52.733,3.756-237.973,3.004s-62.197-11.718-63.549-12.169-50.479-8.113-50.479-8.113l-73.916,17.277,20.733,47.624Z" style="fill:#263238;"></path><path d="M128.08,373.934l-3.851,6.738-22.874,3.99,3.38,5.859,44.527-2.982,112.676,3.521,251.043,3.606,96.731,.081,49.298-3.022v-8.327l-40.113-51.831-32.902-9.014-52.733,3.756-237.973,3.004s-62.197-11.718-63.549-12.169-50.479-8.113-50.479-8.113l-73.916,17.277,20.733,47.624Z" style="opacity:.3;"></path><path d="M69.79,312.901c1.604,0,94.237-22.857,94.237-22.857l65.765-26.868s42.106-10.827,99.45-9.624c37.955,.796,55.356,2.295,62.784,3.218,2.563,.318,4.783,1.825,6.137,4.025,.537,.873,1.32,1.932,2.458,3.184,4.01,4.411,36.091,39.7,36.091,39.7h27.67s133.535,9.223,173.235,14.035c0,0,24.862,3.208,32.883,7.619l8.02,32.482h7.619s-.802,36.492-59.75,30.878c0,0-2.807-25.264-8.02-34.487s-17.243-20.451-42.908-20.451-45.715,10.827-51.329,28.472c-5.614,17.644-8.822,36.935-8.822,36.935l-258.249-1.646s.401-25.665-4.01-36.893c-4.411-11.228-12.03-32.883-52.933-30.878-40.903,2.005-48.923,21.253-55.74,50.928,0,0-54.938-5.213-58.948-9.223-4.01-4.01-5.213-8.421-5.213-8.421h-16.04c-3.101,0-5.614-2.513-5.614-5.614v-3.208c0-3.101,2.514-5.614,5.614-5.614h0l5.614-35.69Z" style="fill:#407BFF;"></path><path d="M69.117,317.506l581.223,2.336c6.989,1.154,14.578,2.744,20.16,5.49l1.641,6.646-604.879-2.664,1.856-11.808Z" style="fill:#fff;"></path><polygon points="114.212 302.279 298.695 303.216 275.078 281.606 235.528 283.081 164.027 290.044 114.212 302.279" style="opacity:.3;"></polygon><path d="M164.027,290.044h61.671c5.053,0,8.822-4.656,7.77-9.598l-3.676-17.27c-14.185,4.186-39.978,15.529-65.765,26.868Z" style="fill:#263238;"></path><path d="M278.71,267.675c-4.464,.499-7.461,4.813-6.382,9.174l4.586,18.542s1.725,7.475,17.538,7.763c14.931,.272,122.398,1.056,134.341,1.142,.434,.003,.67-.496,.396-.832-4.338-5.32-28.236-34.246-38.42-38.549-16.8-7.099-87.54,.018-112.059,2.76Z" style="fill:#263238;"></path><path d="M389.75,267.326c-3.069-1.324-10.382-2.852-27.693-2.852-28.145,0-67.46,4.057-83.056,5.802-1.396,.156-2.606,.876-3.409,2.028-.794,1.139-1.058,2.566-.724,3.917l2.765,9.465h132.723c-13.998-13.768-14.987-15.936-20.606-18.36Z" style="fill:#fff; opacity:.3;"></path><g><path d="M295.077,336.733h-59.566c11.171,6.883,14.921,17.223,17.539,23.888,4.411,11.228,4.01,36.893,4.01,36.893l258.249,1.646s3.208-19.29,8.822-36.935c3.881-12.199,14.666-21.136,29.432-25.492H295.077Z" style="opacity:.3;"></path><path d="M686.139,357.814h-7.619l-5.205-21.081h-77.305c12.068,3.957,18.802,11.18,22.359,17.472,5.213,9.223,8.02,34.487,8.02,34.487,58.948,5.614,59.75-30.877,59.75-30.877Z" style="opacity:.3;"></path><path d="M85.43,371.448c4.01,4.01,58.948,9.223,58.948,9.223,4.639-20.192,9.846-35.549,25.58-43.939H66.041l-1.865,11.858h0c-3.101,0-5.614,2.513-5.614,5.614v3.208c0,3.101,2.514,5.614,5.614,5.614h16.04s1.203,4.411,5.213,8.421Z" style="opacity:.3;"></path></g><g><ellipse cx="202.081" cy="383.557" rx="49.087" ry="48.976" style="fill:#263238;"></ellipse><g style="opacity:.3;"><rect x="199.664" y="356.545" width="4.822" height="20.188" rx="2.398" ry="2.398" style="fill:#fff;"></rect></g><g style="opacity:.3;"><rect x="199.664" y="390.376" width="4.822" height="20.187" rx="2.398" ry="2.398" style="fill:#fff;"></rect></g><g style="opacity:.3;"><path d="M211.259,381.036c-1.148,.648-2.605,.245-3.254-.901h0c-.667-1.146-.278-2.614,.869-3.28l13.365-7.735,.006-.004c1.151-.659,2.62-.263,3.281,.885h0l.003,.006c.661,1.148,.264,2.614-.887,3.273l-13.349,7.735-.033,.019Z" style="fill:#fff;"></path></g><g style="opacity:.3;"><path d="M178.624,396.997h0l-.004-.006c-.661-1.148-.264-2.614,.887-3.273l13.349-7.735c1.152-.668,2.629-.281,3.302,.866h0c.667,1.154,.272,2.628-.884,3.295l-13.349,7.735c-1.156,.666-2.634,.271-3.302-.882Z" style="fill:#fff;"></path></g><g style="opacity:.3;"><path d="M225.521,397.065c-.664,1.146-2.134,1.538-3.283,.875l-13.365-7.735c-1.15-.672-1.538-2.146-.868-3.295h0c.668-1.146,2.139-1.533,3.286-.866l13.349,7.735,.006,.004c1.149,.663,1.542,2.13,.878,3.276h0l-.004,.006Z" style="fill:#fff;"></path></g><g style="opacity:.3;"><path d="M196.146,380.16c-.671,1.143-2.143,1.526-3.288,.857l-13.349-7.735-.006-.004c-1.149-.663-1.542-2.13-.878-3.276h0c.669-1.153,2.146-1.547,3.302-.882l13.349,7.735,.006,.004c1.149,.663,1.542,2.13,.878,3.276h0l-.014,.024Z" style="fill:#fff;"></path></g><path d="M202.083,379.517h0c2.235,0,4.047,1.808,4.047,4.038s-1.812,4.037-4.047,4.037-4.047-1.808-4.047-4.038,1.812-4.038,4.047-4.038Z" style="fill:#263238;"></path></g><g><ellipse cx="571.797" cy="383.557" rx="49.087" ry="48.976" style="fill:#263238;"></ellipse><g style="opacity:.3;"><path d="M574.202,358.942v15.392c0,1.324-1.076,2.398-2.403,2.398h-.016c-1.327,0-2.403-1.074-2.403-2.398v-15.392c0-1.324,1.076-2.398,2.403-2.398h.016c1.327,0,2.403,1.073,2.403,2.398Z" style="fill:#fff;"></path></g><g style="opacity:.3;"><path d="M574.202,392.774v15.392c0,1.324-1.076,2.398-2.403,2.398h-.016c-1.327,0-2.403-1.073-2.403-2.398v-15.392c0-1.324,1.076-2.398,2.403-2.398h.016c1.327,0,2.403,1.073,2.403,2.398Z" style="fill:#fff;"></path></g><g style="opacity:.3;"><path d="M580.975,381.036c-1.148,.648-2.605,.245-3.254-.901h0c-.667-1.146-.278-2.614,.869-3.28l13.365-7.735,.006-.004c1.151-.659,2.62-.263,3.281,.885h0l.003,.006c.661,1.148,.264,2.614-.887,3.273l-13.349,7.735-.033,.019Z" style="fill:#fff;"></path></g><g style="opacity:.3;"><path d="M548.341,396.997h0l-.004-.006c-.661-1.148-.264-2.614,.887-3.273l13.349-7.735c1.152-.668,2.629-.281,3.302,.866h0c.667,1.154,.272,2.628-.884,3.295l-13.349,7.735c-1.156,.666-2.634,.271-3.302-.882Z" style="fill:#fff;"></path></g><g style="opacity:.3;"><path d="M595.238,397.065c-.664,1.146-2.134,1.538-3.283,.875l-13.365-7.735c-1.15-.672-1.538-2.146-.868-3.295h0c.668-1.146,2.139-1.533,3.286-.866l13.349,7.735,.006,.004c1.149,.663,1.542,2.13,.878,3.276h0l-.004,.006Z" style="fill:#fff;"></path></g><g style="opacity:.3;"><path d="M565.862,380.16c-.671,1.143-2.143,1.526-3.288,.857l-13.349-7.735-.006-.004c-1.149-.663-1.542-2.13-.878-3.276h0c.668-1.153,2.146-1.547,3.302-.882l13.349,7.735,.006,.004c1.149,.663,1.542,2.13,.877,3.276h0l-.014,.024Z" style="fill:#fff;"></path></g><path d="M571.799,379.517h0c2.235,0,4.047,1.808,4.047,4.038s-1.812,4.037-4.047,4.037-4.047-1.808-4.047-4.038,1.812-4.038,4.047-4.038Z" style="fill:#263238;"></path></g><path d="M405.15,290.637s-4.115,5.644-2.234,15.403c0,0,16.814,2.469,19.4-3.88,2.587-6.349-10.582-12.934-17.166-11.523Z" style="fill:#407BFF;"></path><path d="M405.15,290.637s-4.115,5.644-2.234,15.403c0,0,16.814,2.469,19.4-3.88,2.587-6.349-10.582-12.934-17.166-11.523Z" style="opacity:.3;"></path><g><path d="M557.906,335.613l-323.602,.422c5.937,3.368,9.919,7.684,12.741,12.028h286.047c6.15-5.913,14.691-10.185,24.814-12.45Z" style="fill:#fff;"></path><path d="M673.001,335.463l-81.105,.106c10.478,2.53,17.474,7.385,22.053,12.494h62.162l-3.111-12.6Z" style="fill:#fff;"></path><path d="M66.117,336.254l-1.858,11.809h92.577c3.599-4.903,8.205-8.92,14.329-11.946l-105.048,.137Z" style="fill:#fff;"></path></g><polygon points="64.176 348.591 84.146 348.591 66.041 336.733 64.176 348.591" style="fill:#d7504d;"></polygon><path d="M670.5,325.333s-23.666-2.681-25.317,6.646h26.958l-1.641-6.646Z" style="fill:#d7504d;"></path><path d="M436.764,387.789h-153.817c-.116,0-.216-.079-.243-.191-.093-.388-9.372-39.053-12.736-61.251-3.387-22.344,6.735-29.262,6.837-29.329,.116-.075,.27-.043,.346,.072,.076,.115,.043,.27-.072,.346-.1,.065-9.952,6.838-6.618,28.837,3.239,21.37,11.968,58.03,12.683,61.017h153.438c.904-2.834,12.373-38.935,12.373-46.482,0-8.144-7.159-25.974-12.596-29.03-5.659-3.182-7.654-7.194-7.736-7.363-.061-.124-.009-.273,.115-.334,.123-.062,.274-.009,.334,.115,.02,.04,2.019,4.047,7.531,7.146,5.548,3.118,12.852,21.214,12.852,29.466,0,7.896-11.944,45.224-12.452,46.809-.033,.104-.13,.174-.238,.174Z" style="fill:#263238;"></path></g></g></svg>
