<svg xmlns="http://www.w3.org/2000/svg" viewBox="0 0 750 500"><g id="freepik--background-simple--inject-186"><path d="M131.65,236.33l1.12,2.84c9.47,23.92,31.04,41.03,56.39,43.71,3.26,.34,6.54,.45,9.83,.31,23.63-1,46.41-14.87,58.39-35.56,7.05-12.17,10.94-26.89,21.87-35.64,14.23-11.39,34.58-8.36,52.32-4.77,17.74,3.59,38.11,6.57,52.29-4.88,8.88-7.17,13.29-18.76,14.61-30.16,3.5-30.18-12.8-60.47-37.04-78.27-24.25-17.8-55.25-24.3-85.26-23.39-42.03,1.28-84.51,17.21-113.65,48-29.14,30.8-43.07,77.14-30.86,117.81Z" style="fill:#f5f5f5;"></path><circle cx="519.32" cy="151.27" r="52.78" style="fill:#f5f5f5;"></circle></g><g id="freepik--Floor--inject-186"><path d="M735.7,343.32c0,.14-161.51,.26-360.69,.26s-360.72-.12-360.72-.26,161.47-.26,360.72-.26,360.69,.12,360.69,.26Z" style="fill:#263238;"></path></g><g id="freepik--Lines--inject-186"><g><path d="M284.91,415.95c0,.14-9.78,.26-21.83,.26s-21.83-.12-21.83-.26,9.77-.26,21.83-.26,21.83,.12,21.83,.26Z" style="fill:#263238;"></path><path d="M265.4,420.21c0,.14-9.98,.26-22.3,.26s-22.3-.12-22.3-.26,9.98-.26,22.3-.26,22.3,.12,22.3,.26Z" style="fill:#263238;"></path></g><g><path d="M584.24,262.7c0,.14-13.9,.26-31.05,.26s-31.06-.12-31.06-.26,13.9-.26,31.06-.26,31.05,.12,31.05,.26Z" style="fill:#263238;"></path><path d="M609.43,268.03c0,.14-13.18,.26-29.44,.26s-29.44-.12-29.44-.26,13.18-.26,29.44-.26,29.44,.12,29.44,.26Z" style="fill:#263238;"></path></g></g><g id="freepik--Car--inject-186"><g><g><path d="M676.62,358.99h-38.84v9.37c-6.23,.28-10.99,.51-11.16,.56-.51,.17-10.97,13.14-10.97,13.14,.83-.11,40.82-2.79,45.04-5.35,2.47-1.5,4.59-4.55,5.92-6.82h10v-10.9Z" style="fill:#e0e0e0;"></path><g><polygon points="99.67 394.53 358.77 394.53 487.52 394.53 623.29 376.56 593.15 325.26 102.94 332.55 99.67 394.53" style="fill:#FF725E;"></polygon><polygon points="99.67 394.53 358.77 394.53 487.52 394.53 623.29 376.56 593.15 325.26 102.94 332.55 99.67 394.53" style="opacity:.5;"></polygon></g><polygon points="330.27 263.38 267.42 307.99 280.04 309.59 339.44 263.38 330.27 263.38" style="fill:#455a64;"></polygon><path d="M684.66,331.48c1.05-1.83-5.76-26.19-8.38-28.13-2.62-1.94-101.1-3.83-101.1-3.83-23.57-10.22-113.41-36.41-134.89-40.07-21.48-3.67-68.1-3.93-87.48-3.4-19.38,.52-22.53,7.33-22.53,7.33h4.71l-57.62,44s-183.09,7.07-190.42,8.91c-7.33,1.83-19.38,6.29-19.91,7.6-.52,1.31-2.88,6.02-2.62,10.22s5.24,16.76,5.24,16.76c0,0,8.64,3.67,8.64,4.98s-1.57,1.31-6.55,1.83c-4.98,.52-4.98,.79-6.02,4.71-1.05,3.93,12.05,20.43,12.05,24.1s-1.83,10.22-1.83,10.22c0,0,23.57,0,28.29,.52,.51,.06,2.22,.15,4.86,.29-.39-2.49-.59-5.04-.59-7.64,0-27.32,22.15-49.47,49.47-49.47s45.93,20.27,49.47,49.47c.29,2.39,1.18,11.53,2.13,15.53,4.15,.43,8.25,.09,9.12,.07,8.4-.2,143.8-3.27,180.21-5.37,36.41-2.1,67.31,2.88,82.24,1.83,1.73-.12,4.63-.39,8.39-.77,2.93-2.49,5.2-4.68,5.8-14.7,1.71-28.58,23.21-51.84,51.84-51.84s48.13,21.24,51.84,51.84c.06,.52,.27,1.24,.55,2.1,8.77-1.13,41.89-5.44,47.11-6.8,6.02-1.57,28.55-25.41,35.36-30.91,6.81-5.5,1.57-17.55,2.62-19.38Z" style="fill:#FF725E;"></path><g style="opacity:.3;"><path d="M241.82,397.63c.32-2.34,1.75-4.38,3.74-5.66,6.88-4.43,14.99-2.28,22.59-.91,16.18,2.91,33.04,1.98,48.8-2.69-10.55,2.98-21.82,.59-32.39-2.33-10.57-2.92-21.31-6.4-32.24-5.55-4,.31-7.94,1.2-11.94,1.58-4,.37-8.17,.2-11.81-1.52-4.28-2.02-7.65-6.53-6.61-11.42,.71-3.33,3.51-5.92,6.92-5.86,3.69,.06,6.46,3.16,9.41,5.36,6.81,5.09,16.02,5.81,24.4,4.41s16.31-4.7,24.49-6.99c8.18-2.29,17.03-3.56,25.09-.88-7.79-5.07-17.45-6.63-26.74-6.11-9.28,.52-18.34,2.97-27.32,5.38-2.61,.7-5.31,1.4-7.99,.74-.93-.23-1.82-.65-2.56-1.25-3.65-2.95-1.67-7.54,1.52-9.4,2.42-1.42,5.35-1.61,8.15-1.67,15.78-.32,31.45,2.71,47.23,2.89,11.75,.14,23.53-1.32,34.89-4.32-11.55-2.28-23.49-.07-35.25-.59-19.68-.87-38.97-9.36-58.5-6.74-8.76,1.17-17.06,4.54-25.61,6.81-6.14,1.63-12.62,2.71-18.97,1.92-2.46-.3-5.82-1.13-7.96-2.02-3.3-1.37-4.23-1.22-7.93-3.07-1.75-.87-3.54-1.78-3.36-3.73,.22-2.36,3-2.87,5.14-2.66,5.18,.5,10.06,2.66,15.21,3.38,8.69,1.21,17.06-5.05,25.42-7.72,8.36-2.67,33.8-.54,42.3,1.63-4.12-4.45-26.9-7.19-32.94-6.68-6.04,.51-11.8,2.7-17.58,4.54-5.78,1.84-11.87,3.35-17.87,2.43-8.47-1.3-16.09-7.33-24.63-6.62-2.31,.19-4.79,.84-7.13,1.06-2.48,.23-2.94-3.51-.47-3.85,1.18-.17,2.4-.2,3.58-.15,3.31,.15,6.58,.92,9.89,.99,7.45,.18,9.83-4.64,17.21-5.63,14.07-1.9,33.34,6.01,47.07,2.36-14.47,1.3-28.5-5.69-43.03-6.02-6.07-.14-12.17,.91-17.85,3.06-1.61,.61-3.34,1.33-5.02,.47-.96-.49-1.5-1.63-1.08-2.63,.44-1.04-.07-3.17,5.19-3.78,15.76-1.82,9.76,1.52,45.12,1.22-11.31-2.48-22.57-4.18-34.14-4.71-11.57-.53-23.57,.2-33.94,5.36-2.51,1.25-4.92,2.71-7.57,3.61-2.65,.9-6.47,2.32-8.21,.13-2.94-3.7,23.37-9.59,20.87-11.87-40.41,1.78-77.22,3.58-80.43,4.38-7.33,1.83-19.38,6.29-19.91,7.6-.52,1.31-2.88,6.02-2.62,10.22s5.24,16.76,5.24,16.76c0,0,8.64,3.67,8.64,4.98s-1.57,1.31-6.55,1.83c-4.98,.52-4.98,.79-6.02,4.71-1.05,3.93,12.05,20.43,12.05,24.1s-1.83,10.22-1.83,10.22c0,0,23.57,0,28.29,.52,.51,.06,2.22,.15,4.86,.29-.39-2.49-.59-5.04-.59-7.64,0-27.32,22.15-49.47,49.47-49.47s45.93,20.27,49.47,49.47c.29,2.39,1.18,11.53,2.13,15.53,4.15,.43,8.25,.09,9.12,.07,2.12-.05,12.31-.28,26.95-.64-2.42-1.56-4.28-3.82-3.82-7.21Z" style="fill:#fff;"></path></g><g style="opacity:.3;"><path d="M454.01,375.97c-6,1.01-3.5-5.26-.76-15,3.49-12.41,8.13-29.14,4.26-29.38-6.91-.42-144.4-1.48-187.71-.98-22.96,.27-77.52-2.33-125.39-1.48-42.43,.75-79.99,4.96-79.99,4.96,.26,4.19,5.24,16.76,5.24,16.76,0,0,8.64,3.67,8.64,4.98s-1.57,1.31-6.55,1.83c-4.98,.52-4.98,.79-6.02,4.71s12.05,20.43,12.05,24.1-1.83,10.22-1.83,10.22c0,0,23.57,0,28.29,.52,.51,.06,2.22,.15,4.86,.29-.39-2.49-.59-5.04-.59-7.64,0-27.32,22.15-49.47,49.47-49.47s45.93,20.27,49.47,49.47c.29,2.39,1.18,11.53,2.13,15.53,4.15,.43,8.25,.09,9.12,.07,8.5-.2,143.8-3.27,180.21-5.37,36.41-2.1,67.31,2.88,82.24,1.83,1.73-.12,4.63-.39,8.39-.77,2.93-2.49,5.2-4.68,5.8-14.7,.52-8.76,2.91-17.03,6.79-24.27-2.64,.15-11.83,8-20.76,13.01-3.97,2.23-25.98,.53-27.34,.76Z"></path><path d="M599.57,388.57c8.77-1.13,41.89-5.44,47.11-6.8,6.02-1.57,28.55-25.41,35.36-30.91,6.81-5.5,1.57-17.55,2.62-19.38,.96-1.68-4.71-22.39-7.67-27.24-4.98,5.18-5.83,18.96-5.83,18.96,0,0-35.02-3.23-60.83,3.69-25.8,6.91-16.13,23.5-22.58,28.59h0c5.92,8.41,9.81,18.98,11.26,30.98,.06,.52,.27,1.24,.55,2.1Z"></path></g><path d="M227.38,393.09s134.51,2.04,170.18,1.27c35.67-.76,90.7-4.33,92.99-6.11,2.29-1.78-8.66-6.62-8.66-6.62,0,0-197.7,4.6-206.61,4.85-8.92,.25-54.77,1.52-47.9,6.62Z" style="opacity:.3;"></path><path d="M446.48,329.14s.35,.02,1.02,.12c.67,.09,1.66,.24,2.96,.47,1.29,.23,2.88,.53,4.73,1.01,.92,.26,1.91,.53,2.91,1.02,.24,.14,.5,.25,.73,.45,.11,.09,.25,.16,.31,.36,.04,.16,.06,.31,.06,.46,.02,.6-.04,1.19-.1,1.81-.59,4.9-1.81,10.77-3.38,17.49-.81,3.35-1.68,6.93-2.88,10.63-.59,1.84-1.37,3.77-2.78,5.33-1.38,1.55-3.38,2.7-5.63,2.76l.1-.02c-1.36,.44-2.69,.5-4.06,.65-1.37,.13-2.75,.22-4.16,.3-2.81,.16-5.69,.28-8.63,.39-5.89,.21-12.03,.34-18.39,.46-12.72,.22-26.3,.33-40.39,.39-36.48,.14-69.51-.06-93.41-.29-11.95-.12-21.62-.25-28.31-.38-3.33-.08-5.92-.14-7.69-.19-.87-.04-1.53-.07-2-.09-.45-.03-.68-.07-.68-.07,.32,0,1.06,.02,2.68,.06,1.78,.02,4.37,.05,7.69,.09,6.7,.05,16.37,.12,28.31,.21,23.9,.13,56.93,.28,93.41,.14,14.09-.06,27.67-.16,40.38-.37,6.36-.11,12.5-.23,18.38-.43,2.94-.1,5.82-.21,8.62-.37,1.4-.08,2.78-.17,4.14-.29,1.34-.14,2.74-.23,3.93-.61l.06-.02h.04c2.05-.05,4-1.13,5.31-2.61,1.35-1.49,2.11-3.35,2.71-5.18,1.2-3.68,2.09-7.25,2.92-10.59,1.59-6.7,2.85-12.57,3.47-17.44,.06-.61,.13-1.2,.11-1.77,0-.14-.02-.28-.05-.4-.01-.09-.13-.18-.24-.26-.2-.18-.45-.3-.68-.43-.97-.48-1.96-.76-2.87-1.03-1.83-.5-3.42-.82-4.71-1.07-1.28-.23-2.26-.4-2.94-.53-.67-.11-1.01-.18-1.01-.18Z" style="fill:#263238;"></path><path d="M442.77,315.59c-.03-.08,.81,.07,1.82-.74,.48-.4,.95-1.09,1.02-1.98,.08-.88-.29-1.95-1.22-2.58-.45-.32-1.02-.5-1.62-.5-.64,0-1.31,0-1.99,.01-1.38,0-2.85,.02-4.4,.02-3.11,0-6.51,.01-10.09,.02-.82,0-1.61,.38-2.12,1-.51,.62-.72,1.44-.59,2.2,.12,.76,.58,1.45,1.21,1.85,.31,.2,.66,.34,1.02,.4,.35,.07,.74,.04,1.13,.05,3.08,.02,5.87,.04,8.24,.06l5.55,.08c.61,.02,1.11,.04,1.51,.05,.35,.02,.53,.03,.53,.05s-.18,.04-.53,.05c-.4,.01-.9,.03-1.51,.05-1.39,.02-3.27,.05-5.55,.08-2.37,.02-5.15,.03-8.24,.06-.38,0-.78,.03-1.22-.05-.42-.07-.84-.23-1.21-.47-.74-.47-1.29-1.28-1.44-2.18-.16-.9,.09-1.89,.69-2.62,.6-.73,1.54-1.19,2.52-1.19,3.57,0,6.98,.01,10.09,.02,1.55,0,3.02,.02,4.4,.02,.69,0,1.35,.01,1.99,.02,.68,.01,1.33,.23,1.83,.6,1.03,.73,1.42,1.95,1.3,2.91-.11,.98-.66,1.71-1.19,2.11-.54,.41-1.07,.55-1.41,.59-.35,.05-.53,0-.53,0Z" style="fill:#263238;"></path><path d="M451.19,325.79c-.21,.73,4.41,4.66,10.94,4.84,6.54,.18,39.22,2.1,36.79,0-2.43-2.1-47.12-6.97-47.73-4.84Z" style="fill:#fff; opacity:.3;"></path><path d="M444.2,375.98s.08-.02,.24-.04c.19-.02,.42-.03,.7-.06,.61-.05,1.52-.08,2.68-.12,2.33-.05,5.71,0,9.88,.16,4.17,.13,9.12,.41,14.62,.38,1.37-.02,2.78-.06,4.21-.16,1.42-.1,2.89-.27,4.2-.9,1.31-.61,2.32-1.76,3.1-3.07,.78-1.3,1.4-2.76,2.09-4.19,2.73-5.74,5.33-11.21,7.7-16.19,1.19-2.48,2.32-4.85,3.37-7.06,1.04-2.22,2.1-4.25,2.85-6.17,.75-1.92,1.12-3.79,.95-5.41-.18-1.62-.83-2.93-1.55-3.82-.73-.89-1.52-1.36-2.08-1.59-.56-.24-.89-.27-.88-.31,0,0,.33,0,.92,.21,.58,.2,1.42,.66,2.19,1.56,.76,.9,1.47,2.23,1.68,3.91,.2,1.68-.16,3.62-.9,5.58-.74,1.97-1.78,4-2.81,6.23-1.04,2.22-2.16,4.59-3.33,7.08-2.36,4.99-4.95,10.46-7.66,16.21-.69,1.43-1.31,2.88-2.12,4.23-.8,1.34-1.89,2.59-3.32,3.26-1.42,.67-2.95,.83-4.38,.93-1.44,.1-2.86,.13-4.24,.15-5.52,0-10.48-.32-14.64-.5-4.16-.2-7.53-.32-9.86-.33-1.16,0-2.07,0-2.68,.02-.28,0-.51,0-.7,0-.16,0-.24,0-.24-.02Z" style="fill:#263238;"></path><path d="M446.7,305.45s.23,.2,.68,.62c.45,.43,1.11,1.06,1.99,1.89l.02,.02v.03c-1.21,7.6-4.56,27.29-8.77,54.68-.57,3.42-1.16,6.95-1.77,10.6-.64,3.64-1.28,7.4-2.16,11.22-.12,.48-.23,.96-.39,1.44-.04,.12-.06,.24-.13,.37l-.09,.19-.05,.1s-.11,.11-.15,.13c-.3,.13-.54,.16-.79,.2-1,.15-2,.21-3,.27-2.01,.12-4.04,.18-6.09,.24-4.11,.11-8.31,.17-12.6,.21-17.15,.16-35.67,.08-54.98-.04-30.56-.21-59.12-.57-83.14-.93h-.14l-.05-.12c-1.21-2.75-1.6-5.6-2.1-8.35-.45-2.76-.79-5.47-1.08-8.12-.59-5.29-1-10.32-1.32-15.04-.32-4.73-.57-9.15-.73-13.25-.15-4.1-.29-7.85-.17-11.26,.26-3.4,.84-6.38,1.31-8.98,.49-2.59,.96-4.78,1.36-6.56,.41-1.76,.72-3.11,.93-4.04,.22-.91,.36-1.38,.36-1.38,0,0-.09,.48-.29,1.39-.2,.93-.49,2.29-.87,4.06-.37,1.78-.82,3.97-1.29,6.57-.45,2.59-1.01,5.58-1.25,8.96-.1,3.38,.06,7.15,.23,11.23,.18,4.09,.44,8.51,.78,13.24,.34,4.72,.76,9.75,1.36,15.02,.3,2.64,.65,5.34,1.1,8.09,.49,2.72,.91,5.61,2.07,8.22l-.19-.12c24.02,.31,52.58,.64,83.14,.85,19.31,.12,37.82,.21,54.97,.07,4.29-.04,8.49-.09,12.59-.2,2.05-.05,4.08-.12,6.08-.23,1-.06,1.99-.12,2.96-.26,.23-.03,.49-.09,.64-.15,.01,0,0,0,0,0,0,0,.07,.08,.11,.09-.23-.17-.06-.07-.1-.11l.02-.04,.07-.15c.05-.09,.08-.22,.12-.33,.15-.45,.27-.93,.38-1.4,.88-3.8,1.53-7.56,2.18-11.19,.62-3.64,1.22-7.18,1.8-10.59,4.28-27.37,7.74-47.06,9.06-54.63l.02,.05c-.86-.85-1.51-1.49-1.95-1.93-.43-.43-.64-.66-.64-.66Z" style="fill:#263238;"></path><path d="M65.69,363.26s29.01-5.51,29.38-5.88-17.48-.54-17.48-.54c0,0-8.29,.74-9.79,1.59-1.5,.85-2.44,3.45-2.11,4.83Z" style="opacity:.3;"></path><g><path d="M113.66,384.5c-.34,23.83,18.7,43.43,42.53,43.77,23.83,.34,43.43-18.7,43.77-42.53,.34-23.83-18.7-43.43-42.53-43.77-23.83-.34-43.43,18.7-43.77,42.53Z" style="fill:#263238;"></path><path d="M113.67,384.38s0,.07,0,.11c-.34,23.83,18.7,43.43,42.53,43.77,23.83,.34,43.43-18.7,43.77-42.53,0-.04,0-.07,0-.11l-86.29-1.24Z" style="fill:#263238;"></path><path d="M126.52,384.68c-.24,16.73,13.13,30.49,29.86,30.73,16.73,.24,30.49-13.13,30.73-29.86,.24-16.73-13.13-30.49-29.86-30.73-16.73-.24-30.49,13.13-30.73,29.86Z" style="fill:#fafafa;"></path><path d="M157.25,354.82c-16.73-.24-30.49,13.13-30.73,29.86l60.59,.87c.24-16.73-13.13-30.49-29.86-30.73Z" style="fill:#e0e0e0;"></path><path d="M138.36,384.85c-.15,10.19,8,18.57,18.19,18.72,10.19,.15,18.57-8,18.72-18.19,.15-10.19-8-18.57-18.19-18.72-10.19-.15-18.57,8-18.72,18.19Z" style="fill:#263238;"></path></g><g><circle cx="546.03" cy="381.62" r="43.15" transform="translate(157.76 922.95) rotate(-89.3)" style="fill:#263238;"></circle><path d="M502.88,380.89s0,.07,0,.11c-.34,23.83,18.7,43.43,42.53,43.77,23.83,.34,43.43-18.7,43.77-42.53,0-.04,0-.07,0-.11l-86.29-1.24Z" style="fill:#263238;"></path><path d="M515.73,381.19c-.24,16.73,13.13,30.49,29.86,30.73,16.73,.24,30.49-13.13,30.73-29.86,.24-16.73-13.13-30.49-29.86-30.73-16.73-.24-30.49,13.13-30.73,29.86Z" style="fill:#fafafa;"></path><path d="M546.46,351.33c-16.73-.24-30.49,13.13-30.73,29.86l60.59,.87c.24-16.73-13.13-30.49-29.86-30.73Z" style="fill:#e0e0e0;"></path><path d="M527.57,381.36c-.15,10.19,8,18.57,18.19,18.72,10.19,.15,18.57-8,18.72-18.19,.15-10.19-8-18.57-18.19-18.72-10.19-.15-18.57,8-18.72,18.19Z" style="fill:#263238;"></path></g><path d="M222.64,387.5s-.12-.05-.36-.17c-.24-.11-.57-.32-1-.61-.84-.59-1.99-1.59-3.32-3.01-1.32-1.43-2.84-3.28-4.44-5.54-1.63-2.24-3.11-5.03-4.92-7.99-3.6-5.92-7.96-13.02-14.19-19.75-3.11-3.36-6.76-6.55-11.02-9.12-1.04-.68-2.16-1.24-3.29-1.81-1.12-.59-2.3-1.07-3.49-1.54-2.4-.91-4.91-1.63-7.5-2.13-5.18-1.02-10.38-1.22-15.34-.9-4.97,.33-9.73,1.19-14.11,2.53-8.79,2.62-15.96,7.09-21.04,11.78-5.12,4.69-8.23,9.46-10.09,12.85-.9,1.72-1.53,3.09-1.93,4.03-.19,.45-.34,.81-.45,1.07-.1,.24-.16,.36-.17,.36,0,0,.6-2.08,2.37-5.55,1.81-3.43,4.89-8.27,10.02-13.02,5.08-4.76,12.29-9.31,21.15-11.97,4.41-1.36,9.2-2.24,14.21-2.58,5-.34,10.25-.14,15.48,.9,2.62,.51,5.16,1.24,7.58,2.16,1.21,.48,2.41,.96,3.53,1.56,1.14,.58,2.27,1.15,3.33,1.84,4.31,2.61,7.98,5.84,11.1,9.23,6.25,6.8,10.59,13.94,14.15,19.89,1.8,2.98,3.25,5.77,4.85,8.01,1.57,2.27,3.05,4.12,4.35,5.57,1.3,1.44,2.42,2.45,3.23,3.07,.81,.62,1.31,.83,1.29,.87Z" style="fill:#263238;"></path><path d="M495.42,362.16s.6-2.08,2.37-5.56c1.81-3.43,4.89-8.27,10.02-13.03,5.08-4.76,12.29-9.31,21.15-11.97,4.41-1.36,9.2-2.24,14.21-2.58,5-.34,10.24-.14,15.47,.89,2.62,.51,5.16,1.24,7.59,2.16,1.21,.48,2.41,.96,3.54,1.56,1.14,.58,2.27,1.15,3.33,1.84,4.31,2.61,7.98,5.84,11.1,9.23,6.26,6.8,10.59,13.94,14.15,19.89,1.8,2.98,3.25,5.77,4.85,8.01,1.57,2.26,3.05,4.12,4.35,5.56,1.3,1.44,2.42,2.45,3.23,3.07,.81,.62,1.31,.83,1.29,.87,0,0-.12-.05-.36-.17-.24-.11-.57-.32-1-.61-.84-.59-1.99-1.59-3.32-3.01-1.32-1.43-2.84-3.28-4.44-5.53-1.63-2.24-3.11-5.03-4.92-7.99-3.6-5.92-7.96-13.02-14.19-19.76-3.11-3.36-6.76-6.55-11.02-9.12-1.05-.68-2.17-1.24-3.29-1.81-1.12-.59-2.3-1.07-3.49-1.54-2.4-.91-4.91-1.63-7.5-2.13-5.18-1.02-10.37-1.22-15.34-.9-4.97,.33-9.73,1.19-14.1,2.53-8.79,2.62-15.96,7.09-21.04,11.78-5.12,4.69-8.23,9.46-10.09,12.85-.9,1.72-1.53,3.09-1.93,4.03-.19,.45-.34,.81-.45,1.07-.1,.24-.16,.36-.17,.36Z" style="fill:#263238;"></path><path d="M78.93,319.18c.14,0-.04,14.86-.4,33.19-.37,18.33-.78,33.19-.92,33.18-.14,0,.04-14.86,.4-33.19,.37-18.33,.78-33.18,.92-33.18Z" style="fill:#263238;"></path><g><path d="M126.52,313.8c.61-1.22,7.19-16.68,9.34-17.35,2.15-.68,42.64-.46,68.65,2.9,22.51,2.91,38.7,6.44,38.7,6.44l.78,3.66-117.47,4.36Z" style="fill:#FF725E;"></path><g style="opacity:.3;"><path d="M149.07,310.18c1.31-1.03,3.08-1.28,4.74-1.2,1.66,.09,3.3,.48,4.97,.58,8.39,.51,16.41-6.27,24.57-4.21-3.46-2.55-8.02-3.57-12.24-2.73-4.05,.81-7.98,3.23-12.02,2.39-1.54-.32-3.19-1.48-3.07-3.05,.1-1.4,1.58-2.33,2.98-2.48,1.4-.15,2.79,.24,4.19,.28,2.61,.09,5.22-1.08,6.91-3.07-17.65-.74-32.95-.66-34.24-.25-2.15,.68-8.73,16.14-9.34,17.35l21.06-.78c.06-1.08,.64-2.16,1.5-2.84Z" style="fill:#fff;"></path></g><path d="M126.52,313.8c.24,0,121.96-6.01,119.71-5.18s-117.42,.1-118.79,3.16c-.45,1.01-.92,2.03-.92,2.03Z" style="opacity:.3;"></path></g><path d="M684.05,332.55s-.28,.09-.82,.2c-.59,.12-1.38,.28-2.38,.48-2.12,.4-5.11,.97-8.77,1.66-7.45,1.41-17.66,3.34-28.94,5.48-5.64,1.1-11.03,2.15-15.87,3.27-1.2,.32-2.41,.53-3.41,1.07-1.02,.53-1.86,1.3-2.59,2.1-1.46,1.63-2.47,3.44-3.3,5.12-1.64,3.38-2.58,6.29-3.3,8.27-.35,.99-.64,1.76-.88,2.27-.22,.52-.46,.72-.48,.7,0,0,.04-.06,.12-.18,.07-.12,.16-.31,.26-.57,.2-.51,.46-1.29,.78-2.29,.66-2,1.55-4.93,3.16-8.36,.82-1.7,1.82-3.55,3.31-5.24,.75-.83,1.62-1.65,2.7-2.22,1.09-.59,2.31-.81,3.51-1.14,4.86-1.15,10.24-2.21,15.89-3.32,11.3-2.19,21.55-4.02,28.97-5.33,3.68-.63,6.67-1.14,8.8-1.5,1-.16,1.8-.28,2.4-.38,.55-.08,.84-.11,.84-.1Z" style="fill:#263238;"></path><path d="M678.53,353.97c-.14,.04-3.4-11.44-7.28-25.64-3.88-14.2-6.92-25.74-6.78-25.78s3.4,11.44,7.28,25.64c3.88,14.2,6.92,25.74,6.78,25.78Z" style="fill:#263238;"></path></g><path d="M577.5,299.73s-.11,.02-.34,.03c-.25,.01-.58,.03-.99,.05-.91,.03-2.19,.07-3.82,.13-3.35,.09-8.14,.22-14.05,.38-11.89,.3-28.26,.72-46.34,1.18-8.85,.24-17.3,.45-24.98,.78-3.85-.02-7.39,.95-10.78,1.55-3.37,.65-6.51,1.25-9.4,1.8h-.04c-6.17-.03-11.17-.06-14.67-.08-1.71-.02-3.04-.04-3.99-.05-.43-.01-.78-.02-1.04-.03-.23,0-.35-.02-.35-.03s.12-.02,.35-.03c.26,0,.6-.02,1.04-.03l3.99-.05c3.5-.02,8.5-.05,14.67-.08h-.04c2.88-.57,6.03-1.19,9.39-1.86,3.36-.61,6.95-1.6,10.84-1.6,7.7-.35,16.14-.58,24.99-.82,18.1-.48,34.49-.81,46.35-1.03,5.91-.09,10.7-.17,14.05-.22,1.63-.01,2.91-.02,3.82-.03,.41,0,.74,0,.99,0,.22,0,.34,.01,.34,.02Z" style="fill:#263238;"></path><g><path d="M277.36,307.91c-.16,0-.31-.07-.42-.21-.18-.23-.13-.56,.1-.74l56.39-43.06h-3.16c-.29,0-.53-.24-.53-.53s.24-.53,.53-.53h4.71c.23,0,.43,.14,.5,.36,.07,.21,0,.45-.18,.59l-57.62,44c-.09,.07-.21,.11-.32,.11Z" style="fill:#e0e0e0;"></path><path d="M277.36,307.91s.15,.01,.35-.17l.92-.74c.84-.66,2.04-1.6,3.58-2.8,3.15-2.43,7.66-5.91,13.23-10.21,5.6-4.3,12.27-9.41,19.66-15.09,3.7-2.83,7.59-5.81,11.62-8.89,2.02-1.54,4.07-3.11,6.15-4.7,.52-.4,1.04-.8,1.57-1.2,.24-.19,.57-.43,.74-.57,.12-.13,.06-.36-.1-.42-.05-.03-.23-.01-.4-.02h-1.5c-.67,0-1.34,0-2.01,0h-.91s-.06,0-.09,.02c-.06,.02-.11,.06-.14,.12-.06,.11-.03,.26,.06,.33,.05,.04,.11,.06,.17,.06h.36c.96,0,1.9,0,2.8,0h.77l-.61,.47c-16.09,12.24-30.45,23.18-40.82,31.07-5.17,3.91-9.35,7.06-12.25,9.26-1.43,1.07-2.55,1.9-3.33,2.48-.44,.24-.32,.72-.14,.84,.18,.15,.33,.13,.32,.14,0,0-.14,.05-.35-.1-.1-.08-.2-.22-.21-.42-.02-.19,.12-.42,.32-.55,.77-.6,1.87-1.46,3.27-2.56,2.88-2.23,7.02-5.42,12.16-9.38,10.34-7.93,24.68-18.91,40.72-31.2l.16,.47h-3.17c-.18,0-.36-.07-.5-.18-.28-.23-.37-.67-.18-.98,.09-.16,.23-.29,.4-.35,.08-.03,.18-.05,.27-.05h.92c.67,0,1.34,0,2.01,0h1.75c.08,0,.24,0,.34,.06,.49,.17,.66,.86,.31,1.24-.33,.3-.54,.43-.82,.65-.52,.4-1.05,.8-1.57,1.2-2.08,1.59-4.14,3.16-6.15,4.69-4.04,3.08-7.93,6.04-11.64,8.87-7.42,5.64-14.11,10.72-19.73,15-5.61,4.24-10.16,7.68-13.33,10.08-1.56,1.17-2.79,2.08-3.64,2.72l-.95,.7c-.22,.17-.39,.12-.38,.12Z" style="fill:#263238;"></path></g><g><path d="M286,307.99c.64-.21,50.67-40.07,55.97-42.4,5.3-2.33,9.75-3.18,19.29-2.97,9.54,.21,87.14,4.24,92.23,9.12s-6.78,33.71-6.78,33.71l-160.71,2.54Z" style="fill:#455a64;"></path><g><path d="M314.41,307.91c-.08,0-.16-.02-.24-.06-.26-.13-.36-.44-.23-.7l17.44-34.31c.13-.26,.45-.36,.71-.23,.26,.13,.36,.44,.23,.7l-17.44,34.31c-.09,.18-.28,.29-.47,.29Z" style="fill:#e0e0e0;"></path><path d="M314.41,307.91s.36,.02,.53-.52c.25-.52,.59-1.23,1.02-2.11,.93-1.87,2.23-4.49,3.82-7.7,1.64-3.26,3.58-7.12,5.73-11.39,1.08-2.14,2.22-4.39,3.4-6.72,.59-1.16,1.19-2.35,1.8-3.55,.31-.6,.61-1.21,.92-1.82l.46-.91c.08-.16-.05-.37-.24-.36-.09,0-.18,.05-.22,.12l-.22,.43-.47,.92c-.31,.61-.62,1.22-.92,1.82-.61,1.2-1.22,2.39-1.81,3.55-1.19,2.33-2.33,4.57-3.43,6.71-2.19,4.26-4.16,8.1-5.83,11.34-1.66,3.19-3.01,5.78-3.97,7.63-.45,.9-.91,1.6-1.04,2.06,0,.25,.16,.4,.28,.44,.12,.04,.19,.06,.19,.07s-.07,0-.21-.02c-.13-.03-.35-.19-.37-.49,.02-.32,.23-.57,.38-.93,.17-.36,.37-.76,.59-1.21,.93-1.87,2.23-4.49,3.82-7.7,1.64-3.26,3.58-7.12,5.73-11.4,1.08-2.14,2.22-4.39,3.4-6.72,.59-1.17,1.19-2.35,1.8-3.55,.31-.6,.61-1.21,.92-1.82l.47-.92c.09-.16,.14-.28,.25-.49,.15-.22,.4-.35,.66-.35,.54-.02,.96,.61,.71,1.1l-.47,.93c-.31,.61-.62,1.21-.92,1.82-.61,1.2-1.22,2.39-1.81,3.55-1.19,2.32-2.33,4.57-3.43,6.71-2.19,4.26-4.16,8.1-5.83,11.34-1.66,3.19-3.01,5.78-3.97,7.63-.46,.86-.83,1.55-1.1,2.06-.11,.24-.26,.43-.41,.46-.14,.04-.21,.02-.21,.02Z" style="fill:#263238;"></path></g><g><path d="M286,308.52c-.26,0-.47-.18-.52-.44-.04-.23,.08-.46,.29-.56,.44-.27,4.65-3.57,9.96-7.73,15.32-11.98,40.96-32.04,46-34.67,5.44-2.84,10.42-3.23,19.55-3.03,5.56,.12,87.13,4.05,92.58,9.26,5.2,4.98-5.43,31.3-6.66,34.29-.08,.19-.27,.32-.48,.33l-160.71,2.54h0Zm71.68-45.42c-6.75,0-10.97,.61-15.46,2.95-4.96,2.59-31.55,23.39-45.84,34.57-4.93,3.86-7.44,5.82-8.75,6.82l158.72-2.51c3.33-8.17,10.68-29.06,6.78-32.81-4.73-4.54-78.63-8.68-91.87-8.97-1.27-.03-2.46-.05-3.58-.05Z" style="fill:#e0e0e0;"></path><g><path d="M286,308.52c-.26,0-.47-.18-.52-.44-.04-.23,.08-.46,.29-.56,.44-.27,4.65-3.57,9.96-7.73,15.32-11.98,40.96-32.04,46-34.67,5.44-2.84,10.42-3.23,19.55-3.03,5.56,.12,87.13,4.05,92.58,9.26,5.2,4.98-5.43,31.3-6.66,34.29-.08,.19-.27,.32-.48,.33l-160.71,2.54h0Zm71.68-45.42c-6.75,0-10.97,.61-15.46,2.95-4.96,2.59-31.55,23.39-45.84,34.57-4.93,3.86-7.44,5.82-8.75,6.82l158.72-2.51c3.33-8.17,10.68-29.06,6.78-32.81-4.73-4.54-78.63-8.68-91.87-8.97-1.27-.03-2.46-.05-3.58-.05Z" style="fill:none;"></path><path d="M357.67,263.1s3.42-.09,9.72,.18c6.3,.25,15.49,.71,27.03,1.45,11.54,.77,25.44,1.7,41.13,3.51,3.92,.48,7.95,1,12.05,1.81,1.02,.21,2.05,.44,3.08,.74,.51,.15,1.02,.32,1.53,.53,.48,.2,1.05,.48,1.38,.98,.67,.96,.8,2.11,.88,3.19,.05,1.1-.02,2.2-.14,3.29-.53,4.38-1.72,8.71-3.05,13.08-1.36,4.36-2.91,8.76-4.69,13.16l-.06,.15h-.16c-17.53,.28-36.59,.59-56.38,.91-37.84,.58-73.04,1.13-102.35,1.58h-.65l.51-.39c20.09-15.63,36.69-28.67,48.66-37.3,3-2.12,5.68-4.12,8.41-5.09,2.68-1.04,5.12-1.41,7.08-1.59,1.96-.18,3.48-.2,4.49-.2,1.02,0,1.54,.02,1.54,.02,0,0-.13,.01-.39,.02-.27,0-.65,.02-1.15,.03-1.01,.03-2.52,.06-4.48,.27-1.95,.2-4.37,.59-7.02,1.64-2.69,.98-5.33,2.98-8.33,5.12-11.92,8.68-28.48,21.77-48.54,37.44l-.14-.39c29.3-.48,64.51-1.05,102.34-1.66,19.78-.31,38.85-.61,56.38-.88l-.23,.15c1.77-4.38,3.33-8.77,4.68-13.11,1.33-4.35,2.52-8.68,3.05-12.99,.12-1.08,.19-2.16,.14-3.22-.06-1.04-.21-2.14-.78-2.94-.27-.42-.71-.63-1.19-.84-.48-.2-.97-.36-1.47-.51-1-.29-2.02-.52-3.04-.73-4.07-.82-8.1-1.34-12.01-1.83-15.66-1.84-29.57-2.8-41.1-3.62-11.54-.78-20.72-1.29-27.01-1.59-3.15-.15-5.58-.25-7.22-.27-.81-.02-1.43-.03-1.86-.04-.42-.01-.63-.03-.63-.03Z" style="fill:#263238;"></path><path d="M286,308.52s.33-.02,.99-.04c.66-.02,1.63-.04,2.9-.07,2.56-.05,6.31-.13,11.13-.23,9.68-.17,23.67-.42,40.95-.73,17.29-.29,37.87-.63,60.73-1.02,11.43-.19,23.42-.38,35.86-.58,1.55-.03,3.12-.05,4.68-.08l2.36-.04,1.15-.02c.1-.02,.18-.07,.23-.2l.22-.55c1.18-2.93,2.29-5.91,3.33-8.95,1.03-3.03,2-6.12,2.81-9.26,.79-3.14,1.51-6.35,1.66-9.62,.05-1.54-.03-3.13-.59-4.51-.33-.67-.76-1.24-1.45-1.54-.67-.33-1.41-.57-2.15-.78-2.97-.83-6.03-1.31-9.06-1.78-6.07-.89-12.09-1.52-18.02-2.09-11.86-1.12-23.34-1.93-34.32-2.62-5.49-.32-10.86-.63-16.08-.93-5.22-.25-10.31-.59-15.23-.61-4.9-.02-9.75,.22-14,1.98-2.14,.82-4.02,2.07-5.84,3.33-1.82,1.25-3.58,2.54-5.29,3.79-13.66,10.13-24.71,18.84-32.79,25.08-8.06,6.27-13.13,10.12-14.4,11.08h0c-.28,.14-.32,.44-.26,.6,.06,.18,.17,.27,.26,.31,.18,.08,.23,.05,.23,.06,0,0-.05,.03-.24-.05-.09-.04-.22-.13-.28-.32-.06-.18-.02-.49,.28-.65h0c1.36-1.06,6.3-4.95,14.28-11.22,8.05-6.29,19.06-15.04,32.7-25.21,1.71-1.26,3.46-2.55,5.29-3.81,1.81-1.26,3.73-2.55,5.91-3.38,4.33-1.8,9.24-2.05,14.16-2.04,4.95,0,10.03,.35,15.25,.59,5.23,.27,10.59,.57,16.08,.91,10.98,.68,22.47,1.48,34.34,2.6,5.93,.57,11.96,1.2,18.04,2.09,3.04,.47,6.1,.95,9.13,1.79,.75,.22,1.51,.45,2.24,.81,.76,.33,1.36,1.06,1.69,1.8,.63,1.53,.69,3.16,.64,4.75-.15,3.34-.88,6.56-1.67,9.73-.82,3.16-1.79,6.26-2.83,9.3-1.05,3.04-2.16,6.03-3.35,8.97l-.22,.55c-.08,.24-.35,.49-.64,.52l-1.21,.02-2.36,.04c-1.57,.02-3.13,.05-4.68,.07-12.44,.19-24.43,.38-35.86,.55-22.85,.34-43.44,.65-60.73,.91-17.28,.24-31.27,.43-40.95,.57-4.83,.06-8.58,.1-11.13,.13-1.26,0-2.23,.02-2.9,.02-.65,0-.99-.01-.99-.01Z" style="fill:#263238;"></path></g></g><path d="M314.78,308.02c2.12-1.28,4.23-2.57,6.35-3.85,.69-.42,.06-1.5-.63-1.08-2.12,1.28-4.23,2.57-6.35,3.85-.69,.42-.06,1.5,.63,1.08h0Z" style="fill:#e0e0e0;"></path><g><g><path d="M329,292.43l-3.04,.02s-6.21,1.77-5.48,9.83c.72,8.07,6.67,7.62,6.67,7.62l3.18-.02-1.32-17.46Z" style="fill:#FF725E;"></path><path d="M329,292.43s.08,.42,.16,1.25c.09,.92,.2,2.13,.34,3.61,.28,3.1,.67,7.49,1.07,12.58l.02,.27h-.27c-.95,.01-1.94,.02-2.95,.03-1.05,.06-2.15-.18-3.13-.67-1.04-.52-1.9-1.33-2.49-2.26-.58-.94-1.01-1.95-1.2-2.97-.45-2.02-.47-4.02-.08-5.78,.39-1.77,1.31-3.23,2.33-4.25,1.05-1,2.16-1.61,3.13-1.91h.03c.94,.02,1.7,.03,2.3,.05,.51,.02,.76,.03,.75,.05s-.3,.04-.82,.06c-.58,.02-1.31,.05-2.23,.09h.03c-.89,.31-1.96,.94-2.94,1.92-.95,1-1.8,2.39-2.15,4.09-.35,1.69-.31,3.63,.13,5.57,.43,1.91,1.49,3.93,3.44,4.88,.9,.45,1.91,.68,2.88,.62,1.02,0,2.01-.01,2.97-.02l-.25,.27c-.36-4.98-.64-9.32-.83-12.43-.08-1.51-.15-2.74-.21-3.67-.04-.87-.06-1.35-.04-1.37Z" style="fill:#263238;"></path></g><path d="M327.15,309.91c-.07,0-.22-.96-.41-2.52-.19-1.57-.41-3.73-.62-6.13-.21-2.4-.38-4.57-.47-6.14-.09-1.57-.11-2.54-.04-2.54,.07,0,.22,.97,.41,2.54,.19,1.57,.41,3.73,.62,6.12,.21,2.39,.38,4.56,.47,6.13,.09,1.57,.11,2.55,.04,2.55Z" style="fill:#263238;"></path></g><path d="M346.07,267.75c-.3,.42-5.17,26,8.78,30.14,13.95,4.13,86.26,3.62,90.92-1.55s6.39-20.68,4.32-22.58c-2.07-1.89-99.71-12.04-104.02-6.01Z" style="fill:#fff; opacity:.3;"></path></g><g><path d="M473.61,270.13c0,.62-8.52,29.7-6.86,29.59,.38-.02,3.03-4.26,5.84-10.79,3.44-7.98,4.56-13.56,3.63-16.18-.92-2.62-2.62-2.62-2.62-2.62Z" style="opacity:.3;"></path><path d="M473.61,270.13s.13,.02,.37,.08c.27,.07,.62,.17,1.07,.29,.96,.28,2.33,.67,4.09,1.18,3.57,1.06,8.68,2.58,14.99,4.46,6.32,1.91,13.84,4.19,22.17,6.81,4.17,1.31,8.53,2.7,13.04,4.19,2.25,.77,4.54,1.51,6.84,2.47,1.16,.41,2.31,1.31,2.78,2.57,.51,1.25,.29,2.66-.26,3.84-.54,1.2-1.47,2.21-2.67,2.79-.61,.27-1.34,.31-1.93,.3-.62,0-1.23,.02-1.85,.02-2.45,.03-4.87,.06-7.24,.09-4.75,.06-9.33,.11-13.7,.16-8.72,.09-16.58,.17-23.19,.24-6.58,.05-11.91,.09-15.64,.12-1.82,0-3.25,0-4.25,0-.46,0-.83,0-1.11-.01-.25,0-.38-.01-.38-.02,0,0,.13-.02,.38-.03,.27-.01,.64-.02,1.11-.04,1-.02,2.43-.06,4.25-.1,3.72-.07,9.06-.16,15.63-.28,6.61-.1,14.47-.22,23.19-.35,4.37-.06,8.95-.13,13.7-.19,2.38-.03,4.79-.06,7.25-.1,.61,0,1.23-.02,1.85-.02,.64,0,1.17-.03,1.72-.26,1.04-.51,1.92-1.44,2.4-2.54,.5-1.08,.69-2.36,.24-3.44-.42-1.09-1.37-1.88-2.51-2.28-2.23-.93-4.54-1.68-6.78-2.45-4.5-1.5-8.86-2.9-13.02-4.22-8.33-2.6-15.83-4.94-22.14-6.91-6.29-1.94-11.38-3.52-14.94-4.62-1.74-.55-3.1-.97-4.06-1.27-.44-.14-.79-.26-1.05-.34-.24-.08-.36-.12-.35-.13Z" style="fill:#263238;"></path><path d="M482.72,294.93h0c-.47-.1-.78-.56-.68-1.03l2.88-14.25c.1-.47,.56-.78,1.03-.68h0c.47,.1,.78,.56,.68,1.03l-2.88,14.25c-.1,.47-.56,.78-1.03,.68Z" style="opacity:.2;"></path><path d="M486.02,294.99h0c-.47-.1-.78-.56-.68-1.03l2.65-13.1c.1-.47,.56-.78,1.03-.68h0c.47,.1,.78,.56,.68,1.03l-2.65,13.1c-.1,.47-.56,.78-1.03,.68Z" style="opacity:.2;"></path><path d="M489.53,295.05h0c-.47-.1-.78-.56-.68-1.03l2.39-11.82c.1-.47,.56-.78,1.03-.68h0c.47,.1,.78,.56,.68,1.03l-2.39,11.82c-.1,.47-.56,.78-1.03,.68Z" style="opacity:.2;"></path><path d="M493.21,295.43h0c-.47-.1-.78-.56-.68-1.03l2.16-10.68c.1-.47,.56-.78,1.03-.68h0c.47,.1,.78,.56,.68,1.03l-2.16,10.68c-.1,.47-.56,.78-1.03,.68Z" style="opacity:.2;"></path><path d="M496.91,295.43h0c-.47-.1-.78-.56-.68-1.03l1.76-8.7c.1-.47,.56-.78,1.03-.68h0c.47,.1,.78,.56,.68,1.03l-1.76,8.7c-.1,.47-.56,.78-1.03,.68Z" style="opacity:.2;"></path><path d="M500.32,295.43h0c-.47-.1-.78-.56-.68-1.03l1.36-6.7c.1-.47,.56-.78,1.03-.68h0c.47,.1,.78,.56,.68,1.03l-1.36,6.7c-.1,.47-.56,.78-1.03,.68Z" style="opacity:.2;"></path></g></g></g></svg>
