<svg xmlns="http://www.w3.org/2000/svg" viewBox="0 0 750 500"><g id="freepik--background-simple--inject-183"><path d="M332.71,104.44l.97,2.45c8.17,20.64,4.7,44.15-9.66,60.8-1.85,2.14-3.85,4.15-6,6-15.46,13.32-37.98,18.05-57.74,12.1-11.62-3.49-22.76-10.46-34.81-9.51-15.68,1.24-26.69,15.16-35.73,27.89-9.04,12.73-20.1,26.64-35.78,27.81-9.82,.73-19.44-3.96-27-10.35-20.02-16.93-27.66-45.61-22.91-71.12,4.74-25.52,20.42-47.92,39.83-65.06,27.2-24.02,63.33-39.08,99.85-36.91,36.52,2.17,72.65,23.1,88.98,55.9Z" style="fill:#f5f5f5;"></path><path d="M421.49,95.14l-.97,2.45c-8.17,20.64-4.7,44.15,9.66,60.8,1.85,2.14,3.85,4.15,6,6,15.46,13.32,37.98,18.05,57.74,12.1,11.62-3.49,22.76-10.46,34.81-9.51,15.68,1.24,26.69,15.16,35.73,27.89,9.04,12.73,20.1,26.64,35.78,27.81,9.82,.73,19.44-3.96,27-10.35,20.02-16.93,27.66-45.61,22.91-71.12-4.74-25.52-20.42-47.92-39.83-65.06-27.2-24.02-63.33-39.08-99.85-36.91-36.52,2.17-72.65,23.1-88.98,55.9Z" style="fill:#f5f5f5;"></path></g><g id="freepik--Floor--inject-183"><path d="M735.99,266.87c0,.14-161.64,.26-360.98,.26s-361.01-.12-361.01-.26,161.6-.26,361.01-.26,360.98,.12,360.98,.26Z" style="fill:#263238;"></path></g><g id="freepik--Car--inject-183"><ellipse cx="372.24" cy="424.68" rx="331.68" ry="7.68" style="fill:#ebebeb;"></ellipse><g><path d="M214.69,279.6s54.86-31.22,72.44-39.79c17.58-8.57,37.48-14.41,37.48-14.41l9.19,4-48.38,26.33-51.75,30.01-18.98-6.14Z" style="fill:#455a64;"></path><polygon points="209.03 275.29 221.01 276.01 238.67 280.16 223.85 283.58 210.52 278.64 209.03 275.29" style="fill:#263238;"></polygon><path d="M543.91,228.19s67.21,30.2,87.03,34.24l-5.77,12.45-33.56-8.84-27.04-18.13-27.35-11.41s-7.07-8.06-6.15-8.31c.92-.25,12.83,0,12.83,0Z" style="fill:#455a64;"></path><path d="M90.62,387.27c5.25,1.69,394.07,0,394.07,0l165.79-10.53-4.93-64.78-521.73-.79-37.45,24.85v48.19" style="fill:#FF725E;"></path><path d="M90.62,387.27c5.25,1.69,394.07,0,394.07,0l165.79-10.53-4.93-64.78-521.73-.79-37.45,24.85v48.19" style="opacity:.3;"></path><path d="M693.24,311.17s-.83-14.09-.83-18.22-4.35-13.6-4.35-13.6l1.61-9.69c0-3.12-7.35-1.81-10.47-1.87-25.76-.48-48.25-5.36-48.25-5.36l-5.77,5.36c-11.55-2.47-86.21-36.71-86.21-36.71,0,0,3.71-2.47,4.95-2.89,1.24-.41-23.1-9.49-103.53-13.61-80.44-4.12-117.97,11.55-117.97,11.55l8.66,2.89c-33.82,8.25-92.4,51.15-92.4,51.15-27.64,0-30.52-5.77-30.52-5.77-70.95,3.71-134.88,23.51-148.5,29.7-6.81,3.09-15.32,7.18-18.26,11.4-2.94,4.23-2.03,8.38-2.36,13.76-.16,2.67-4.75,10.98-5,16.2-.8,16.43,3.55,34.79,3.55,34.79,.03,.91-10.18,5.01-6.09,6.24,12.64,3.81,51.11,7.22,58.28,7.53,1.26,.05,3.83,.1,7.38,.14-1.55-5.24-2.39-10.78-2.39-16.52,0-32.16,26.07-58.23,58.23-58.23s58.23,26.07,58.23,58.23c0,5.69-.83,11.19-2.35,16.39,.18,0,.36,0,.54,0,27.22-.41,256.57-.82,302.77-2.48,.57-.02,1.15-.04,1.73-.06-1.08-4.44-1.67-9.07-1.67-13.84,0-32.16,26.07-58.23,58.23-58.23s58.23,26.07,58.23,58.23c0,3.04-.23,6.03-.68,8.94,.17,0,.32,0,.49,.02,13.2,.41,57.75-7.84,57.75-7.84l14.85-15.67,3.9-34.63-11.73-17.27Z" style="fill:#FF725E;"></path><path d="M243.38,295.34s-.13,.02-.38,.03c-.28,0-.64,.02-1.11,.03-1,.02-2.43,.04-4.26,.07-3.7,.08-9.05,.04-15.66,.27-13.22,.28-31.48,1.07-51.59,2.75-20.11,1.71-38.25,3.97-51.31,6-6.54,.98-11.81,1.93-15.45,2.57-1.79,.33-3.2,.6-4.19,.78-.46,.08-.82,.15-1.09,.2-.25,.04-.37,.06-.37,.05,0,0,.12-.04,.36-.11,.27-.06,.63-.15,1.08-.25,.95-.22,2.36-.51,4.17-.88,3.63-.71,8.89-1.71,15.43-2.74,13.06-2.13,31.2-4.45,51.33-6.16,20.12-1.69,38.39-2.42,51.62-2.6,6.61-.18,11.97-.09,15.67-.11,1.83,.01,3.26,.02,4.26,.02l1.11,.02c.25,0,.38,.02,.38,.02Z" style="fill:#263238;"></path><path d="M74.39,384.2s-7.79-25.98-11.69-26.31c-3.9-.32-17.54-1.62-18.84,0s0,19.81,0,19.81l30.53,6.5Z" style="fill:#263238;"></path><path d="M106.86,341.34s-.56,.07-1.57,.1c-1.1,.02-2.55,.05-4.28,.08-3.62,.05-8.61,.08-14.13,.08-1.38,0-2.73,0-4.03,0-.65,0-1.29,0-1.94-.05-.64-.09-1.27-.21-1.84-.45-2.35-.87-3.83-2.8-4.42-4.53-.3-.88-.42-1.72-.41-2.45,0-.72,.03-1.34,.04-1.84,.03-1.01,.07-1.57,.1-1.57s.07,.56,.1,1.57c.08,1-.12,2.51,.52,4.17,.6,1.63,2.04,3.42,4.24,4.21,.54,.22,1.12,.32,1.72,.4,.59,.05,1.23,.04,1.89,.04,1.3,0,2.65,0,4.03,0,5.52,0,10.51,.03,14.13,.08,1.74,.03,3.18,.06,4.28,.08,1.01,.03,1.57,.07,1.57,.1Z" style="fill:#263238;"></path><path d="M258.36,280.64s47.55-30.55,67.9-39.21c20.35-8.66,39.62-12.34,51.96-13.64,12.34-1.3,30.96-1.17,42.22-1.34,11.26-.17,48.28,2.43,61.27,4.16,12.99,1.73,27.99,3.46,46.14,11.91,18.16,8.44,48.03,28.36,48.03,30.31s-1.52,1.08-1.52,1.08l-316.01,6.74Z" style="fill:#455a64;"></path><polygon points="410.73 226.44 395.32 277.72 420.2 277.19 426.41 226.44 410.73 226.44" style="fill:#263238;"></polygon><g><path d="M386.5,304.75c0,3.94-3.19,7.13-7.13,7.13s-7.13-3.19-7.13-7.13,3.19-7.13,7.13-7.13,7.13,3.19,7.13,7.13Z" style="opacity:.3;"></path><g><rect x="363.25" y="301.55" width="31.73" height="6.6" rx="3.15" ry="3.15" style="fill:#FF725E;"></rect><path d="M391.83,308.15s.25-.02,.7-.14c.44-.12,1.12-.4,1.66-1.09,.27-.34,.49-.79,.6-1.3,.08-.51,.1-1.13-.07-1.71-.3-1.18-1.55-2.3-3.14-2.18-6.5,.02-15.37,.05-25.18,.08-1.14-.01-2.21,.71-2.65,1.72-.23,.51-.28,1.04-.24,1.63,.02,.54,.22,1.07,.52,1.5,.62,.9,1.68,1.32,2.76,1.24,1.11,0,2.21,0,3.27,0,4.25,.02,8.08,.04,11.32,.06,3.18,.03,5.77,.06,7.63,.08,.86,.02,1.55,.04,2.08,.05,.47,.02,.72,.03,.72,.05s-.25,.04-.72,.05c-.53,.01-1.22,.03-2.08,.05-1.86,.02-4.45,.05-7.63,.08-3.24,.02-7.07,.03-11.32,.06-1.07,0-2.16,0-3.27,0-.54,.02-1.2-.03-1.75-.28-.56-.25-1.06-.65-1.43-1.16-.36-.51-.59-1.13-.62-1.77-.04-.59,.01-1.28,.28-1.86,.51-1.2,1.78-2.05,3.12-2.04,9.81,.03,18.69,.06,25.18,.08,.83-.04,1.66,.23,2.25,.71,.6,.47,1,1.12,1.16,1.76,.16,.66,.13,1.27,.03,1.83-.13,.56-.39,1.02-.68,1.38-.61,.72-1.33,.97-1.8,1.07-.48,.09-.73,.03-.73,.03Z" style="fill:#263238;"></path></g></g><g><path d="M525.23,304.83c0,3.94-3.19,7.13-7.13,7.13s-7.13-3.19-7.13-7.13,3.19-7.13,7.13-7.13,7.13,3.19,7.13,7.13Z" style="opacity:.3;"></path><g><rect x="501.99" y="301.63" width="31.73" height="6.6" rx="3.15" ry="3.15" style="fill:#FF725E;"></rect><path d="M530.56,308.23s.25-.02,.7-.14c.44-.12,1.12-.4,1.66-1.09,.27-.34,.49-.79,.6-1.3,.08-.51,.1-1.12-.07-1.71-.3-1.18-1.55-2.3-3.14-2.18-6.5,.02-15.37,.05-25.18,.08-1.14-.01-2.21,.71-2.65,1.72-.23,.51-.28,1.04-.24,1.63,.02,.54,.22,1.07,.52,1.5,.62,.9,1.68,1.32,2.76,1.24,1.11,0,2.21,0,3.27,0,4.25,.02,8.08,.04,11.32,.06,3.18,.03,5.77,.06,7.63,.08,.86,.02,1.55,.04,2.08,.05,.47,.02,.72,.03,.72,.05s-.25,.04-.72,.05c-.53,.01-1.22,.03-2.08,.05-1.86,.02-4.45,.05-7.63,.08-3.24,.02-7.07,.03-11.32,.06-1.07,0-2.16,0-3.27,0-.54,.02-1.2-.03-1.75-.28-.56-.25-1.06-.65-1.43-1.16-.36-.51-.59-1.13-.62-1.77-.04-.59,.01-1.28,.28-1.86,.51-1.2,1.78-2.05,3.12-2.04,9.81,.03,18.69,.06,25.18,.08,.83-.04,1.66,.23,2.25,.71,.6,.47,1,1.12,1.16,1.76,.16,.66,.13,1.27,.03,1.83-.13,.56-.39,1.02-.68,1.38-.61,.72-1.33,.97-1.8,1.07-.48,.09-.73,.03-.73,.03Z" style="fill:#263238;"></path></g></g><path d="M656.9,292.2s-.36,.02-1.07,.03c-.72,0-1.76,.02-3.13,.03-2.77,.02-6.83,.04-12.05,.07-10.48,.07-25.62,.16-44.32,.28-37.43,.33-89.13,.79-146.23,1.3-57.12,.54-108.83,.98-146.25,1.15-18.71,.05-33.85,.09-44.32,.11-5.22-.01-9.28-.02-12.05-.03-1.37,0-2.42-.02-3.13-.02-.71,0-1.07-.02-1.07-.02,0,0,.36-.02,1.07-.03,.72,0,1.76-.02,3.13-.03,2.77-.02,6.83-.04,12.05-.07,10.48-.07,25.61-.16,44.32-.28,37.43-.33,89.14-.79,146.25-1.3,57.1-.54,108.8-.98,146.23-1.15,18.71-.05,33.85-.09,44.32-.11,5.23,.01,9.28,.02,12.05,.03,1.37,0,2.42,.02,3.13,.02,.71,0,1.07,.02,1.07,.02Z" style="fill:#263238;"></path><path d="M675.79,290.91s-.12-.17-.31-.5c-.19-.33-.48-.82-.87-1.44-.78-1.23-1.99-2.98-3.75-4.91-1.76-1.92-4.08-4.03-7.02-5.83-.73-.46-1.53-.84-2.31-1.28-.82-.36-1.66-.75-2.53-1.09-1.76-.63-3.63-1.16-5.57-1.67-7.73-2.05-14.83-3.56-19.96-4.64-2.52-.52-4.58-.95-6.08-1.26-.67-.14-1.22-.26-1.65-.35-.38-.09-.57-.14-.57-.16,0-.02,.21,0,.59,.05,.44,.07,.99,.15,1.67,.26,1.45,.24,3.54,.6,6.12,1.1,5.15,.99,12.27,2.44,20.02,4.5,1.94,.51,3.82,1.05,5.62,1.7,.89,.35,1.73,.74,2.57,1.12,.8,.45,1.61,.84,2.34,1.32,2.97,1.85,5.3,4.02,7.04,5.99,1.74,1.98,2.92,3.78,3.65,5.05,.36,.64,.62,1.15,.79,1.5,.16,.35,.23,.54,.21,.55Z" style="fill:#263238;"></path><path d="M519.71,235.06s.22,.33,.62,.99c.41,.67,1.01,1.64,1.79,2.92,1.57,2.58,3.87,6.38,6.83,11.26,2.96,4.9,6.57,10.88,10.77,17.83,2.09,3.48,4.37,7.18,6.69,11.15,1.17,1.98,2.38,4.05,3.18,6.37,.8,2.32,1.28,4.81,1.24,7.41l-.06,.5c-.04,.16-.09,.32-.14,.47-.09,.31-.18,.63-.32,.93-.23,.61-.5,1.21-.79,1.8-.57,1.19-1.2,2.35-1.86,3.52-1.32,2.33-2.76,4.66-4.25,7.02-3,4.71-6.25,9.52-9.67,14.46-6.85,9.88-14.38,20.29-22.43,31.14-2.03,2.7-4.08,5.44-6.16,8.21-2.1,2.74-4.08,5.65-6.54,8.23-2.46,2.59-5.59,4.59-8.97,5.9-.84,.35-1.69,.66-2.56,.94-.86,.31-1.74,.55-2.62,.81-.87,.27-1.77,.48-2.65,.7-.88,.25-1.8,.39-2.72,.54-3.67,.47-7.36,.74-11.1,.99-3.73,.26-7.5,.46-11.29,.67-7.58,.4-15.28,.75-23.07,1.08-31.17,1.3-60.88,2.22-87.89,3.03-27.02,.74-51.35,1.4-71.78,1.96-20.43,.47-36.96,.85-48.4,1.12-5.71,.1-10.14,.19-13.16,.24-1.5,.02-2.64,.03-3.42,.04-.77,0-1.17-.02-1.17-.02,1.43-.04,25.4-.67,66.14-1.75,20.43-.59,44.76-1.29,71.78-2.07,27.01-.84,56.72-1.77,87.89-3.07,7.79-.33,15.48-.68,23.07-1.08,3.79-.21,7.55-.41,11.28-.67,3.73-.25,7.43-.52,11.06-.98,.9-.15,1.79-.27,2.67-.53,.88-.23,1.77-.43,2.64-.7,.87-.25,1.74-.5,2.59-.8,.86-.27,1.7-.59,2.53-.93,3.34-1.3,6.38-3.23,8.8-5.78,2.42-2.54,4.41-5.43,6.51-8.18,2.08-2.76,4.13-5.5,6.16-8.2,8.06-10.84,15.6-21.23,22.46-31.1,3.43-4.93,6.68-9.74,9.68-14.43,1.49-2.35,2.93-4.67,4.25-6.99,.66-1.16,1.29-2.32,1.85-3.49,.57-1.16,1.11-2.37,1.28-3.57,.04-2.51-.42-5-1.2-7.27-.78-2.29-1.97-4.33-3.14-6.32-2.32-3.98-4.59-7.68-6.66-11.17-4.17-6.96-7.76-12.96-10.69-17.87-2.92-4.9-5.19-8.71-6.74-11.31-.76-1.29-1.34-2.27-1.74-2.95-.39-.67-.58-1.01-.58-1.01Z" style="fill:#263238;"></path><path d="M582.1,272.32s-.04-.09-.11-.28c-.07-.18-.24-.44-.48-.75-.48-.63-1.32-1.46-2.49-2.47-2.34-2.02-6-4.76-10.89-8.02-4.89-3.26-11-7.06-18.28-11.15-7.28-4.07-15.73-8.47-25.41-12.54-1.2-.54-2.46-.94-3.72-1.42-1.27-.44-2.51-.99-3.84-1.33-2.63-.78-5.31-1.61-8.11-2.23-5.56-1.41-11.44-2.42-17.53-3.41-12.21-1.86-25.37-3.08-39.23-3.95-13.87-.85-28.45-1.31-43.57-1.46-15.1-.19-30.79,.74-46.53,3.78-15.73,3.06-30.66,8.12-44.26,14.7-13.58,6.64-26.02,14.31-37.75,21.75-5.86,3.73-11.53,7.45-17.03,11.06-2.76,1.8-5.47,3.58-8.18,5.28-.67,.43-1.37,.83-2.02,1.27l-1.91,1.36c-.57,.53-1.14,1.05-1.7,1.58-.53,.56-1,1.17-1.5,1.75-1.87,2.43-3.23,5.16-4.26,7.93-1.05,2.78-1.72,5.63-2.24,8.44-.53,2.81-.85,5.6-1.07,8.34-.23,2.74-.35,5.42-.42,8.05-.12,5.24,.17,10.25,.38,14.97,.23,4.73,.49,9.18,.75,13.35,.55,8.33,1.02,15.5,1.41,21.37,.41,5.86,.73,10.41,.95,13.5,.11,1.54,.19,2.71,.24,3.51,.05,.79,.07,1.2,.07,1.2,0,0-.05-.4-.12-1.19-.07-.8-.17-1.97-.3-3.51-.24-3.1-.59-7.64-1.05-13.5-.44-5.86-.96-13.04-1.5-21.37-.27-4.17-.54-8.62-.79-13.35-.22-4.73-.53-9.73-.42-15,.06-2.63,.17-5.32,.4-8.07,.21-2.75,.53-5.55,1.06-8.38,.52-2.83,1.19-5.7,2.24-8.51,1.04-2.8,2.41-5.58,4.31-8.05,.51-.59,.99-1.21,1.53-1.79,.58-.54,1.16-1.08,1.74-1.62,.65-.46,1.3-.93,1.95-1.39,.66-.45,1.34-.85,2.01-1.28,2.7-1.7,5.41-3.48,8.16-5.29,5.5-3.61,11.17-7.34,17.03-11.08,11.73-7.45,24.17-15.14,37.78-21.8,13.63-6.6,28.61-11.68,44.38-14.75,15.78-3.04,31.51-3.97,46.64-3.78,15.13,.16,29.71,.63,43.59,1.49,13.87,.89,27.04,2.12,39.27,4,6.1,1.01,11.99,2.03,17.56,3.45,2.81,.62,5.49,1.47,8.13,2.25,1.33,.35,2.59,.91,3.86,1.35,1.26,.48,2.53,.89,3.73,1.43,9.69,4.1,18.13,8.53,25.41,12.63,7.27,4.11,13.37,7.94,18.25,11.23,4.87,3.29,8.52,6.06,10.84,8.11,1.16,1.02,1.99,1.87,2.46,2.52,.49,.64,.55,1.06,.55,1.06Z" style="fill:#263238;"></path><path d="M399.57,381.95s-.02-.14-.05-.41c-.02-.3-.05-.7-.08-1.22-.07-1.07-.14-2.65-.23-4.68-.15-4.07-.34-9.96-.37-17.23,0-14.54,.18-34.73,3.39-56.74,.21-1.37,.38-2.75,.62-4.1,.26-1.35,.52-2.69,.78-4.02,.27-1.33,.49-2.65,.78-3.95,.33-1.29,.65-2.58,.98-3.85,.34-1.27,.61-2.54,1-3.77,.41-1.22,.82-2.43,1.22-3.63,.41-1.19,.8-2.39,1.21-3.54,.4-1.16,.84-2.29,1.15-3.45,1.4-4.59,2.37-9.06,3.18-13.25,.82-4.19,1.46-8.13,2-11.72,1.07-7.19,1.75-13.04,2.2-17.09,.22-2,.38-3.57,.5-4.66l.13-1.21c.03-.27,.05-.41,.06-.41,0,0,0,.14,0,.42-.02,.3-.05,.7-.08,1.22-.08,1.07-.21,2.64-.4,4.67-.39,4.05-1.01,9.91-2.04,17.12-.52,3.6-1.13,7.54-1.94,11.75-.79,4.21-1.75,8.69-3.14,13.31-.31,1.17-.75,2.31-1.15,3.48-.42,1.17-.79,2.34-1.2,3.53-.4,1.19-.8,2.39-1.21,3.61-.39,1.22-.65,2.49-.99,3.75-.32,1.27-.64,2.54-.97,3.83-.29,1.3-.51,2.62-.78,3.94-.26,1.33-.51,2.66-.77,4-.24,1.35-.41,2.72-.62,4.09-3.2,21.96-3.44,42.13-3.53,56.66-.02,7.27,.12,13.16,.21,17.23,.06,2.01,.1,3.59,.13,4.68l.03,1.22c0,.27,0,.42,0,.42Z" style="fill:#263238;"></path><path d="M512.21,236.5s12,19.13,11.55,21.62c-.45,2.49-.91,16.76-.91,16.76h20.65l-20.62-34.55" style="fill:#263238;"></path><path d="M418.05,228.08c.14,.03-1.97,11.1-4.71,24.73-2.74,13.64-5.08,24.66-5.22,24.63-.14-.03,1.97-11.1,4.71-24.74,2.74-13.63,5.08-24.66,5.22-24.63Z" style="fill:#455a64;"></path><path d="M294.38,264.46s18.15-15.33,61.16-26.98c23.82-6.46,48.3-5.34,48.3-5.34l-2.12,8.28s-10.82-1.72-14.26,4.81c-3.43,6.53,4.81,21.98,4.81,21.98,0,0-1.72,8.24-3.09,8.24s-75.64,1.91-75.64,1.91c0,0-3.08-9.46-9.18-12.52-3.62-1.81-9.98-.39-9.98-.39Z" style="fill:#fff; opacity:.3;"></path><path d="M424.27,273.81c0-.22,5.61-40.78,6.08-40.56,.47,.22,48.2-1.08,78.14,6.9l9.36,15.53s-3.28,18.77-3.98,18.12-89.61,0-89.61,0Z" style="fill:#fff; opacity:.3;"></path><g><path d="M103.44,376.22c-.4,27.8,21.81,50.67,49.61,51.07,27.8,.4,50.67-21.81,51.07-49.61,.4-27.8-21.81-50.67-49.62-51.07-27.8-.4-50.67,21.81-51.07,49.61Z" style="fill:#263238;"></path><path d="M103.45,376.09s0,.09,0,.13c-.4,27.8,21.81,50.67,49.61,51.07,27.8,.4,50.67-21.81,51.07-49.61,0-.04,0-.09,0-.13l-100.67-1.45Z" style="fill:#263238;"></path><path d="M118.44,376.44c-.28,19.52,15.31,35.57,34.83,35.85,19.52,.28,35.57-15.31,35.85-34.83,.28-19.52-15.31-35.57-34.83-35.85-19.52-.28-35.57,15.31-35.85,34.83Z" style="fill:#fafafa;"></path><path d="M154.29,341.6c-19.52-.28-35.57,15.31-35.85,34.83l70.69,1.02c.28-19.52-15.31-35.57-34.83-35.85Z" style="fill:#e0e0e0;"></path><path d="M132.25,376.64c-.17,11.89,9.33,21.67,21.22,21.84,11.89,.17,21.67-9.33,21.84-21.22,.17-11.89-9.33-21.67-21.22-21.84s-21.67,9.33-21.84,21.22Z" style="fill:#263238;"></path></g><g><path d="M518.11,376.78c-.42,28.83,22.61,52.53,51.44,52.95,28.83,.42,52.53-22.61,52.95-51.44,.42-28.83-22.61-52.53-51.44-52.95-28.83-.42-52.53,22.61-52.95,51.44Z" style="fill:#263238;"></path><path d="M518.12,376.65s0,.09,0,.13c-.42,28.83,22.61,52.53,51.44,52.95,28.83,.42,52.53-22.61,52.95-51.44,0-.05,0-.09,0-.13l-104.37-1.51Z" style="fill:#263238;"></path><path d="M533.66,377c-.29,20.24,15.88,36.88,36.11,37.17,20.24,.29,36.88-15.88,37.17-36.11,.29-20.24-15.88-36.88-36.11-37.17-20.24-.29-36.88,15.88-37.17,36.11Z" style="fill:#fafafa;"></path><path d="M570.83,340.89c-20.24-.29-36.88,15.88-37.17,36.11l73.29,1.06c.29-20.24-15.88-36.88-36.11-37.17Z" style="fill:#e0e0e0;"></path><path d="M547.98,377.21c-.18,12.33,9.67,22.47,22,22.64,12.33,.18,22.47-9.67,22.64-22,.18-12.33-9.67-22.47-22-22.64-12.33-.18-22.46,9.67-22.64,22Z" style="fill:#263238;"></path></g><path d="M654.49,290.91s-1.31,2.09,0,3.39c1.31,1.31,11.1,15.4,17.36,15.79,6.27,.39,21.38,0,21.38,0l-1.2-19.19h-37.54Z" style="fill:#fff;"></path><path d="M701.07,363.07l-45.67,6.28s-.67,3.33,4.49,3.99c5.16,.67,35.89-4.69,35.89-4.69l5.29-5.58Z" style="opacity:.3;"></path><path d="M220.34,381.95c1.13-.24,15.21-8.4,32.12-8.54,16.9-.14,246.57-12.37,244.88-10.64-1.69,1.73-7.78,8.3-20.05,10.64-16.36,3.12-256.94,8.54-256.94,8.54Z" style="opacity:.3;"></path><polygon points="287.18 262.77 298.03 280.64 258.36 280.64 287.18 262.77" style="fill:#263238;"></polygon><g><path d="M273.97,274.18c-2.68,2.53-3.47,6.79,0,9.48,3.47,2.68,27.01,2.84,29.85,0,2.84-2.84,2.38-8.37-1.74-12.95-2.62-2.92-10.74-6.16-14.21-5.84s-11.2,6.78-13.9,9.32Z" style="fill:#FF725E;"></path><path d="M273.97,274.18s.04-.07,.15-.17c.13-.13,.29-.28,.48-.47,.43-.4,1.06-1,1.91-1.73,1.71-1.44,4.16-3.57,7.61-5.64,.87-.5,1.8-1.01,2.88-1.33,1.11-.36,2.3-.18,3.46,.02,2.33,.45,4.72,1.32,7.12,2.48,1.19,.59,2.39,1.26,3.5,2.12,1.13,.86,2.03,2.02,2.83,3.23,.78,1.23,1.4,2.61,1.74,4.09,.33,1.48,.36,3.08-.14,4.59-.23,.76-.64,1.45-1.13,2.06-.13,.15-.25,.3-.39,.44-.17,.13-.33,.28-.51,.36-.35,.2-.71,.34-1.07,.46-1.45,.47-2.91,.67-4.34,.85-2.87,.33-5.65,.43-8.3,.43-2.65,0-5.16-.1-7.51-.3-2.34-.21-4.53-.49-6.48-1.03-.49-.14-.96-.31-1.4-.53-.46-.22-.8-.56-1.14-.87-.65-.65-1.13-1.41-1.4-2.18-.56-1.56-.28-3.02,.12-4.06,.42-1.06,.96-1.77,1.36-2.2,.19-.23,.37-.37,.47-.48,.11-.1,.17-.15,.18-.14,.02,.02-.2,.23-.57,.69-.37,.45-.87,1.16-1.25,2.2-.36,1.02-.59,2.43-.03,3.89,.55,1.42,1.8,2.92,3.76,3.32,1.9,.51,4.08,.77,6.41,.96,2.33,.18,4.84,.27,7.47,.25,2.63-.02,5.4-.13,8.24-.46,1.41-.18,2.86-.39,4.24-.84,.34-.11,.68-.24,.98-.42,.16-.07,.27-.19,.41-.29,.12-.12,.24-.27,.36-.4,.45-.56,.83-1.19,1.04-1.89,.46-1.39,.44-2.91,.12-4.31-.32-1.41-.92-2.74-1.67-3.93-.77-1.18-1.63-2.29-2.7-3.11-1.07-.83-2.24-1.5-3.41-2.08-2.35-1.15-4.71-2.03-6.98-2.48-1.13-.2-2.27-.37-3.27-.06-1.02,.29-1.95,.78-2.81,1.26-3.43,2-5.92,4.09-7.66,5.47-.83,.69-1.48,1.24-1.97,1.65-.45,.38-.68,.58-.7,.57Z" style="fill:#263238;"></path></g><path d="M39.14,324s6.76-8.7,16.86-12.84c10.09-4.14,69.46-17.52,112.97-21.8,41.59-4.09,67.97-5.52,67.97-5.52l8.11,1.89s-118.39,16.95-145.26,21.94c-20.09,3.73-62.06,25.71-62.06,25.71l1-2.69,.42-6.7Z" style="opacity:.3;"></path><path d="M57.65,312.03c-4.46,2.45-8.02,6.33-9.66,10.31-1.83,4.44-1.44,7.57-.13,7.83,1.31,.26,25.19,1.44,29.37-.91,4.18-2.35,20.75-21.15,20.75-21.15,0,0-32.51-.38-40.33,3.92Z" style="fill:#fff;"></path><path d="M618.91,343.28s.29-.1,.86-.24c.61-.15,1.44-.34,2.48-.59,2.15-.5,5.27-1.21,9.14-2.05,7.73-1.69,18.42-3.91,30.3-6.04,11.88-2.12,22.7-3.69,30.56-4.63,3.93-.47,7.11-.82,9.31-1.02,1.07-.09,1.91-.17,2.54-.22,.58-.05,.89-.06,.89-.04,0,.02-.3,.07-.88,.15-.62,.08-1.46,.19-2.53,.32-2.19,.26-5.37,.66-9.29,1.18-7.84,1.04-18.64,2.66-30.51,4.78-11.87,2.13-22.57,4.3-30.32,5.89-3.84,.79-6.96,1.43-9.17,1.89-1.05,.21-1.88,.37-2.5,.5-.57,.11-.87,.16-.88,.14Z" style="fill:#263238;"></path><path d="M693.24,311.17c-.07,0-.13-1.14-.22-2.97-.1-2-.22-4.45-.35-7.16-.16-2.71-.3-5.16-.41-7.16-.07-.91-.12-1.65-.17-2.16-.04-.51-.1-.78-.05-.8,.08-.03,.39,1.1,.59,2.93,.22,1.83,.42,4.36,.56,7.17,.14,2.8,.2,5.34,.2,7.18,0,1.84-.08,2.98-.14,2.98Z" style="fill:#263238;"></path></g></g></svg>
